/* XPM */
static char *result[] = {
/* columns rows colors chars-per-pixel */
"64 64 11 1 ",
"  c #4E6722",
". c #4A6020",
"X c #466F4A",
"o c #68892D",
"O c #657D24",
"+ c #4C8140",
"@ c black",
"# c #FFC34D",
"$ c #D97716",
"% c #FFF3CC",
"& c #6A7C27",
/* pixels */
" ...  ...............  .  ..................  . ............... ",
"  .  .......................................................... ",
"  .  .......................................................... ",
"  ........ .... .............  ....   ..............XXX..XX.....",
"..........  ..  ...ooo...o....  ..   .....O..........XX.XX......",
"..........  +.  ....ooo.oo....   .  OO..OOO.....  ... ..XX......",
"......+...+++........o@@@@@@@@@@@@@@@@@@@@.......  .  ..........",
"......+++.++..........@@@@@@@@@@@@@@@@@@@@.......  .............",
". .....++......... ...@@@@@@@@@@@@@@@@@@@@.   ..................",
"  ..............@@@@@@####################@@@@@@@...........  ..",
"  ... ..... ....@@@@@@####################@@@@@@@............  .",
" ....   ..  ....@@@@@@####################@@@@@@@............  .",
"......  .   @@@@######$$$$$$$$$$$$$$$$$$$$#######@@@.........  .",
".........  .@@@@######$$$$$$$$$$$$$$$$$$$$#######@@@............",
"............@@@@######$$$$$$$$$$$$$$$$$$$$#######@@@............",
"............@@@@######$$$$$$$$$$$$$$$$$$$$#######@@@............",
".........@@@#######$$$####################$$$$######@@@@........",
".........@@@#######$$$####################$$$$######@@@@... ....",
".........@@@#######$$$####################$$$$######@@@@..  ....",
"..   ....@@@####$$$#######%%%%%%%%%%##########%%%###@@@@.   ....",
"...    . @@@####$$$#######%%%%%%%%%%##########%%%###@@@@.  .....",
"....   . @@@####$$$#######%%%%%%%%%%##########%%%###@@@@........",
"......@@@###$$$$##########%%%#######$$$##########%%%####@@@.....",
"......@@@###$$$$##########%%%#######$$$##########%%%####@@@.....",
"......@@@###$$$$##########%%%#######$$$##########%%%####@@@.....",
"......@@@###$$$$##########%%%#######$$$##########%%%####@@@.....",
"....oo@@@###$$$$###%%%%%%%%%%##########%%%#######%%%####@@@. ...",
".....o@@@###$$$$###%%%%%%%%%%##########%%%#######%%%####@@@.  ..",
"   ...@@@###$$$$###%%%%%%%%%%##########%%%#######%%%####@@@.   .",
"  ....@@@###$$$$###%%%####################$$$$###%%%####@@@..  .",
"......@@@###$$$$###%%%####################$$$$###%%%####@@@.....",
"......@@@###$$$$###%%%####################$$$$###%%%####@@@.....",
"......@@@###$$$$###%%%####################$$$$###%%%####@@@.....",
"......@@@###$$$$###%%%####################$$$$###%%%####@@@.....",
"..   .@@@###$$$$###%%%####################$$$$###%%%####@@@.. ..",
".   ..@@@###$$$$###%%%####################$$$$###%%%####@@@..  .",
".  ...@@@###$$$$######$$$$##########$$$$$$$$$$###%%%####@@@...  ",
"......@@@###$$$$######$$$$##########$$$$$$$$$$###%%%####@@@...  ",
"......@@@###$$$$######$$$$##########$$$$$$$$$$###%%%####@@@.....",
"......@@@###$$$$##########%%%#######$$$##########%%%####@@@.....",
"......@@@###$$$$##########%%%#######$$$##########%%%####@@@XXX..",
"......@@@###$$$$##########%%%#######$$$##########%%%####@@@XX...",
"..... ...@@@####$$$##########$$$$$$$$$$#######%%%###@@@@X.XX....",
".....  ..@@@####$$$##########$$$$$$$$$$#######%%%###@@@@X.   ...",
".....   .@@@####$$$##########$$$$$$$$$$#######%%%###@@@@.   ....",
"......  .@@@####$$$##########$$$$$$$$$$#######%%%###@@@@.  .....",
".........@@@#######%%%####################%%%%######@@@@........",
".........@@@#######%%%####################%%%%######@@@@........",
".........@@@#######%%%####################%%%%######@@@@........",
"............@@@@######%%%%%%%%%%%%%%%%%%%%#######@@@............",
"............@@@@######%%%%%%%%%%%%%%%%%%%%#######@@@............",
"............@@@@######%%%%%%%%%%%%%%%%%%%%#######@@@............",
".o... oo........@@@@@@####################@@@@@@@ ........&.....",
".ooo.oo... .....@@@@@@####################@@@@@@@ .&&&..&&&.....",
"..oo.oo .  .OOO.@@@@@@####################@@@@@@@...&&&.&&..... ",
"......  .....OOO@@@@@@####################@@@@@@@....&&. .....  ",
"..............OO.OO...@@@@@@@@@@@@@@@@@@@@..............   ..   ",
"...........   ...   ..@@@@@@@@@@@@@@@@@@@@  .............   .  .",
"............   .   ...@@@@@@@@@@@@@@@@@@@@ ...............  ....",
".............  .  ..................   .  ......................",
".....................................  .........................",
".......................... .....................................",
"..... .............   ...  ...............   ...  ..............",
"....  ..............   .   ................   .  .............. "
};
