/* XPM */
static char *result[] = {
/* columns rows colors chars-per-pixel */
"64 64 153 2 ",
"   c #4E611F",
".  c #55631C",
"X  c #5D651A",
"o  c #55691F",
"O  c #7D6F0F",
"+  c #656817",
"@  c #6B6A15",
"#  c #626718",
"$  c #626B1B",
"%  c #736C13",
"&  c #7C6E10",
"*  c #767013",
"=  c #7E7211",
"-  c #7C7319",
";  c #757D1C",
":  c #7C7D18",
">  c #4B6120",
",  c #657D24",
"<  c #6A7C27",
"1  c #7D7E20",
"2  c #466F4A",
"3  c #84700D",
"4  c #8A720B",
"5  c #977607",
"6  c #9A7606",
"7  c #9E7805",
"8  c #927409",
"9  c #9C7B0B",
"0  c #8E7914",
"q  c #907E1D",
"w  c #A37A03",
"e  c #AC7C00",
"r  c #A47D08",
"t  c #8C7D25",
"y  c #68892D",
"u  c #738725",
"i  c #4C8140",
"p  c #8A8216",
"a  c #AF8006",
"s  c #AF8109",
"d  c #B58300",
"f  c #BE8A00",
"g  c #B2840D",
"h  c #B6880F",
"j  c #BF8D09",
"k  c #AB8411",
"l  c #B78911",
"z  c #BA8D16",
"x  c #B68C1E",
"c  c #BB8F1D",
"v  c #BF921D",
"b  c #A18721",
"n  c #B68D20",
"m  c #BC9531",
"M  c #BF9A3B",
"N  c #CE9700",
"B  c #CB9709",
"V  c #D39B02",
"C  c #DFA500",
"Z  c #DBA40A",
"A  c #E5A900",
"S  c #EAAD00",
"D  c #EEB000",
"F  c #F3B400",
"G  c #F8B800",
"H  c #F8BB0B",
"J  c #EFB510",
"K  c #F8BD14",
"L  c #F8BF19",
"P  c #C39724",
"I  c #C59A27",
"U  c #C79C2B",
"Y  c #C89D2B",
"T  c #CCA332",
"R  c #D0A737",
"E  c #D1A93A",
"W  c #F8C01D",
"Q  c #F8C224",
"!  c #F8C52E",
"~  c #F3C234",
"^  c #F8C533",
"/  c #F0C23E",
"(  c #F8C739",
")  c #F8C83D",
"_  c #C3A148",
"`  c #C8A64F",
"'  c #D4AF45",
"]  c #D7B145",
"[  c #D9B247",
"{  c #DBB449",
"}  c #C7A753",
"|  c #E0B94C",
" . c #E1BD56",
".. c #E3BF58",
"X. c #CDAF64",
"o. c #CFB36B",
"O. c #D4B462",
"+. c #D1B671",
"@. c #D9BE76",
"#. c #D4BC7C",
"$. c #EFC242",
"%. c #F8CB45",
"&. c #F8CC4C",
"*. c #E5C057",
"=. c #E6C25B",
"-. c #E8C55F",
";. c #F8CE52",
":. c #F8D15B",
">. c #E9C661",
",. c #ECCA66",
"<. c #EECB68",
"1. c #F1CF6B",
"2. c #F8D364",
"3. c #F2D16E",
"4. c #F9D56B",
"5. c #F5D573",
"6. c #F8D773",
"7. c #F8D877",
"8. c #F4D579",
"9. c #F8D878",
"0. c #DAC48C",
"q. c #DBC792",
"w. c #DDC996",
"e. c #DFCC9C",
"r. c #F9DB84",
"t. c #F7DC8B",
"y. c #F9DE8A",
"u. c #E7D29A",
"i. c #F9DF91",
"p. c #FAE095",
"a. c #FAE49F",
"s. c #E2D2A7",
"d. c #E9DCBA",
"f. c #FAE4A2",
"g. c #FBE7AD",
"h. c #FBE8AD",
"j. c #FBEAB3",
"k. c #F4E6BF",
"l. c #FCECBF",
"z. c #EFE5CC",
"x. c #FCEEC3",
"c. c #FAEECC",
"v. c #FDF1CD",
"b. c #F2EAD5",
"n. c #F5EEDE",
"m. c #FDF3D5",
"M. c #FEF5DA",
"N. c #F6F1E4",
"B. c #FEF7E2",
"V. c #FEF8E6",
"C. c #F9F5EB",
"Z. c #FDFAF4",
"A. c #FFFFFF",
/* pixels */
"> > > > > > > > > > > > > > > > > > > > > > > > > > > > > > > > > > > > > > > > > > > > > > > > > > > > > > > > > > > > > > > > ",
"o > > > > > > > > > > > > > > > > > > > > > > > > > > > > > > > > > > > > > > > > > > > > > > > > > > > > > > > > > > > > > > > ",
"o > > > > > > > > > > > > > > > > > > > > > > > > > > > > > > > > > > > > > > > > > > > > > > > > > > > > > > > > > > > > > > > ",
"o o > > > > > > > > > > > > > > > > > > > > > > > > > > > o > > > > > > > > > > > > > > > > > > > > > > 2 2 2 > > 2 2 > > > > > ",
"> > > > > > > > > > > o > > > > > > > y y y > > > , > > > > o > > > > o > > > > > > , > > > > > > > > > > 2 2 > 2 2 > > > > > > ",
"> > > > > > > > > > o > 2 > > > > > > > y y y > y y > > > >   > o > > > , , > > , , , > > > > > > > > > > > > > 2 2 > > > > > > ",
"> > > > > > i > > > i i i > > > > > > > > y y > y u X X X X X # $ X X X X ; < X * , > > > > > > > > > > > > > > > > > > > > > > ",
"> > > > > > i i i > i i > > > > > > > > > > > > > 4 e e e e e e e e e e e e e e e X > > > > > > > > > > > > > > > > > > > > > > ",
"> > > > > > > i i > > > > > > > > > > > > > > > > 6 e e e e e e e e e e e e e e e + > > > o > > > > > > > > > > > > > > > > > > ",
"o > > > > > > > > > > > > > > > > > o > + w w w w  .1.1.1.1.1.1.5.<.1.1.1.1.>.e e r w w w 8 > > > > > > > > > > > > > > > > > > ",
"> o > > > > > > > > > > > > > > > > > > @ e e e e >.9.9.9.9.9.9.9.7.9.9.9.9.1.e e e e e e w > > > > > > > > > > > > > > > > > > ",
"i > > > > o > > > > > > > > > > > > @ 3 b { { { [ ~ ! ! ! ^ ! ^ ! ^ ! ^ ! ! ^ { { { { Y e w 3 3 > > > > > > > > > > > > > > > > ",
"> > > > > > > > > > > > > > > > > > 3 e I 9.9.9.9.L G G G G G G G G G G G G H 6.7.9.9.' e e e w         > > > > > > > > > > > > ",
"> > > > > > > > > o > > > > > > @ @ b U ' 9.6.;.&.K G S C C V A C C C C A G H &.;.4.9. .Y P e e @ #   > > > > > > > > > > > > > ",
"> > > > > > > > > > >   > > > > w e [ 9.9.9.4.G G G G V e e e e e e e e N G G G G :.7.9.7.,.e e e e @   > > > > > > > > > > > > ",
"> > > > > > > > > > > > > >   > k l { 7.6.4.2.G G F D V h h h h h h h h B S S G G ;.4.4.9.<.l h e w % . > > > > > > > > > > > > ",
"> > > > > > > > > > > > > X w e ,.5.9.9.;.G G G G f e R 5.5.5.5.5.5.9.6.| e e D G G G ( 9.9.5.1.e e e e 4 > > > > > > > > > > > ",
"> > > > > > > > > > > > > X e e 1.8.9.9.;.G G G G f e E 9.9.9.9.9.9.9.9.| e e D G G G ( 9.9.9.5.x e e e 4 > > > > > > o > > > > ",
"> > > > > > > > > > > > > X e e 1.7.) K K G F f f | >./ K Q 9.9.9.9.( K ! >...B B C G H K Q 6.5.h e e e 4       > >   > > > > > ",
"> > > > > > > > > > > > > X e e 1.8.^ G G G F e e -.7.) G L 9.9.9.9.Q G ! 7.5.e e C G G F K 9.5.x e e e 4 >     > > > o > > > > ",
"> > > > > >   > > o > # % t #.#.8.9.^ G S V V E E / ) Q G H ) %.6.9.;.( ) ) ~ V V N N C G K 6.6.] R z e 7 3 %   > > > > > > > > ",
"> > > > > > > > > > > : e m A.A.r.9.^ G C e h 5.9.L G G G G G G 2.9.9.9.&.G G G G N e N G K 9.9.8.8.Y e e e 6 > > > > > > > > > ",
"> > > > > > > > > > > & e m A.A.f.i.) G C e h 5.7.L G G G G G H &.2.6.9.;.L K G G e e N G K 9.9.8.8.Y e e e 6   < > > > > > > > ",
"> > > > > > > >   > > & e m A.A.A.A.4.G C e g 5.8.L G G G G G G G G ;.9.9.9.4.G G N e N G K 7.9.8.8.Y e e e 7 < < > > > > > > > ",
"> > > > > > > > > > > + e m A.A.A.A.4.G C e h 5.8.Q H G G G G G G G &.4.6.9.4.H H f e N F K 9.9.9.9.U e e e r < < > > > > > > > ",
"> > > > > > > > > y y = e m A.A.A.A.4.G C e h 5.9.4.4.( G G G G G G H H ( 9.5.4.<.B e N F K 9.9.9.9.U e e e r < > > > > > > > > ",
"> > > > y y y > y y y O e m A.A.A.A.4.G C e g 3.9.9.8.) G G G G G G G G ! 9.9.9.9.P e N G K 9.9.9.9.U e e e 7   > > > > > > > > ",
"> > > > > y y > y y   O e m A.A.A.A.4.G C e x c.m.y.7.4.;.%.G G G G G G K Q ! 9.5.P e N G K 9.9.9.9.U e e e 6 > > > > > > > > > ",
"> > > > > > > >       % e m A.A.A.A.4.G A e x Z.A.i.9.9.9.2.G G G G G G G G H 6.9.P e N G K 9.9.9.9.U e e e 6 > > > > > > > > > ",
"> > > > > > > > > >   O e m A.A.A.A.4.G C e n Z.A.x.g.i.9.4.! ! G G G G G G H %.;.e e N G K 9.9.9.9.U e e e 6 > > > > > > > > > ",
"> > > > > > > > > > > % e m A.A.A.A.4.G C e x Z.A.A.A.x.9.9.7.4.K G G G G G G G F N e N G K 9.9.9.9.Y e e e 4 > > > > > > > > > ",
"> > > > > > > > > >   * e m A.A.A.A.4.G A e x Z.A.A.A.x.y.r.9.6.L K G G G G G G D N e N G K 9.9.9.9.Y e e e 6 > > > > > > > > > ",
"> > > > > > > > > > > = e m A.A.A.A.4.G C e n Z.A.A.A.A.A.V.9.9.6.9.Q G G G G G G N w N F K 7.9.9.9.Y e e e 6 > > > > > > > > > ",
"> > > > > > > > > > > & e m A.A.A.A.4.G C e x Z.A.A.A.A.A.C.9.9.9.9.! G G G G G G f e N G K 7.9.9.9.Y e e e 7 > > > > > > > > > ",
"> > > > > > > > > > > & e c p.p.Z.A.4.G C e x Z.A.A.A.A.A.A.M.M.r.9.4.:.( G G G F f e N G K 5.9.9.9.Y e e e 7 > > > > > > > > > ",
"> > > > > > > > > > > & e z 9.9.Z.A.4.G C e n Z.A.A.A.A.A.A.A.Z.t.9.9.9.&.G G G F N e N G K 9.9.9.9.Y e e e 7 > > > > > > > > > ",
"> > > > > > > > > > > % e z 9.9.h.j.&.G C e x Z.A.A.A.A.A.A.A.A.c.x.i.9.2.%.( G G f e N G K 7.9.9.9.Y e e e 7 > > > > > > > > > ",
"> > > > > > > > > > > & e z 9.9.7.7.^ G C e x Z.A.A.A.A.A.A.A.A.A.A.f.5.9.9.4.G G f e N G K 7.9.9.9.Y e e e 7 > > > > > > >   > ",
"> > > > > >         > & e z 9.9.9.7.^ G C e x Z.A.A.A.A.A.A.A.A.A.A.x.a.i.9.6.Q Q j e N G K 7.9.9.9.Y e e e w > > > > > > > > > ",
"> > > > > >         2 - e z 9.9.9.7.^ G C e x Z.A.A.A.A.A.A.A.A.A.A.A.A.c.9.9.9.5.P e N G K 7.9.7.9.Y e e e 7 > > > > > > > > > ",
"> > > > > > > > > > > 1 e x 9.9.9.9.^ G A e x Z.A.A.A.A.A.A.A.A.A.A.A.A.v.r.9.9.9.v e B G K 7.9.9.9.Y e e e 9 > > > > 2 2 2 > > ",
"> > > > > > > > > > > 1 e z 9.9.9.9.^ G C e x Z.A.A.A.A.A.A.A.A.A.A.A.A.A.Z.V.9.9.v e V G K 7.7.9.9.Y e e e 9 2 > > 2 2 2 > > > ",
"> > > > > > > > > > > & e z 8.9.9.9.^ G C e n Z.A.A.A.A.A.A.A.A.A.A.A.A.A.A.Z.r.9.v e N G K 7.7.9.9.Y e e e r 2 2 > 2 2 > > > > ",
"> > > > > > > > > o > . @ - I I 3.9.^ G S C Z ` } b.A.A.A.A.A.A.A.A.A.A.A.A.N.Y I Z C S G K 7.5.R P h e 8 @ + 2 2 > > > > > > > ",
"> > > > > > > > > > > > > X e e 1.9.^ G G G F e e z.A.A.A.A.A.A.A.A.A.A.A.A.N.s e A G G G K 7.5.z e e e 4 > o > > > > > > > > > ",
"> > > > > > > > > > > > > X e e 1.9.&.^ Q G F N N @.q.z.A.A.A.A.A.A.A.A.b.w.q.o.o.<.4.;.^ ) 7.3.z e e e 4 > > > > > > > > > > > ",
"> > > > > > > > > > > > > X e e 1.9.9.9.;.G G G G f e #.A.A.A.A.A.A.A.A.e.e x Z.A.A.A.x.7.9.9.5.l e e e 4 > > > > > > > > > > > ",
"> > > > > > > > > > > > > X 6 6  .>.1.7.:.L K G G N d O.z.z.z.z.z.z.z.z.w.m _ Z.A.A.A.v.i.y.>.=.h e w 5 & > > > > > > > > > > > ",
"> > > > > > > > > > > > > > > > r e { 9.9.5.2.G G F F V g g g g s s s g X.Z.Z.A.A.A.A.A.A.b.g e e e % > > > > > > > > > > > > > ",
"> > > > > > > > > > > > > > > > w e { 8.9.9.4.H G G G V e e e e e s e e X.A.A.A.A.A.A.A.A.b.e e r e @ > > > > > > > > > > > > > ",
"> > > > > > > > > > > > > > > > . . 0 e T 9.9.4.4.L G F F S S J z.M.n.n.C.A.A.A.A.A.A.w.x x e w + . . > > > > > > > > > > > > > ",
"> > > > > > > > > > > > > > > > > > 3 e I 9.9.9.9.L G G G G G K M.A.A.A.A.A.A.A.A.A.A.0.e e e w . o > > > > > > > > > > > > > > ",
"> y > > > > y y > > > > > > > > > > X % q T T T R | %.%.%.&.%.&.f.j.V.A.A.A.C.+.o.o.o.M e r % % o > > > > > > > > > . > > > > > ",
"> y y y > y y > > > >   > > > > > > > > : e e e e -.9.8.7.7.9.9.9.9.m.A.A.A.N.s e e e e e 9 o > > o > < < < > > < < $ > > > > > ",
"> > y y > y y > > >     , ,   > > > , , ; 8 4 4 5 ' ................u.d.d.d.s.r e 9 8 8 4 4 > > > > > > < < < > < < > > > > > > ",
"> > > > > > > > > > >     , , o > , , , >   > > . 5 e e e e e e e e e e e e e e e # > > > > > > > > > > > < < > > > > > > > > > ",
"> > > > > > > > > > > > > > y , > y y > > > > >   4 w 6 7 7 6 5 w w 7 7 w w w w q $ > > > > > > > > > > > > > > > > o > > o > o ",
"> > > > > > > > > > > > > > > > > o > > > > > > > >   >   > > > > > > >   > > > > > > > > > > > > > > > > > > > > o > o > > > > ",
"> > > > > > > > > > > > > >     > > > > > > > > > > > > > > > > > > > > > > > > > > > > > > > > > > > > > > > > > > > > > > > > ",
"> > > > > > > > > > > > > > > > > > > > > > > > > > > > > > > > > > > > o >   > > > > > > > > > > > > > > > > > > > > > > > > > ",
"> > > > > > > > > > > > > > > > > > > > > > > > > > > > > > > > > > > > > > > > > > > > > > > > > > > > > > > > > > > > > > > > ",
"> > > > > > > > > > > > > > > > > > > > > > > > > > > > > > > > > > > > > > > > > > > > > > > > > > > > > > > > > > > > > > > > ",
"> > > > > > > > > > > > > > > > > > > o > > > > > >   > > > > > > > > > > > > > > > > > > > > > > > > > > > > > > > > > > > > > ",
"> > > > > > > > > > > >   > > > > > > > > > o >   >   > > > > > > > > > > > > > > > > > > > > > > > > > > > > > > > > > > > > > "
};
