/* XPM */
static char *result[] = {
/* columns rows colors chars-per-pixel */
"64 64 12 1 ",
"  c #4E6722",
". c #4A6020",
"X c #466F4A",
"o c #68892D",
"O c #657D24",
"+ c #4C8140",
"@ c black",
"# c #FFC34D",
"$ c #D97716",
"% c #FFF3CC",
"& c #6A7C27",
"* c #B35512",
/* pixels */
" ...  ...............  .  ..................  . ............... ",
"  .  .......................................................... ",
"  .  .......................................................... ",
"  ........ .... .............  ....   ..............XXX..XX.....",
"..........  ..  ...ooo...o....  ..   .....O..........XX.XX......",
"..........  +.  ....ooo.oo....   .  OO..OOO.....  ... ..XX......",
"......+...+++........oo.oo@@@@@@@@@@@@@@OO.......  .  ..........",
"......+++.++..............@@@@@@@@@@@@@@.........  .............",
". .....++......... ...  ..@@@@@@@@@@@@@@...   ..................",
"  ................  .  @@@##############@@@  ...............  ..",
"  ... ..... ....... .  @@@##############@@@ .................  .",
" ....   ..  ...........@@@##############@@@..................  .",
"......  .   ...........@@@####$$$#######@@@..................  .",
".........  ............@@@####$$$#######@@@.....................",
".......................@@@####$$$#######@@@.....................",
".................... ..@@@####$$$#######@@@  ... ...............",
"..............  ..  @@@###$$$$%%%%%%#######@@@.  ...............",
"...............  .  @@@###$$$$%%%%%%#######@@@............. ....",
"................ ...@@@###$$$$%%%%%%#######@@@.......  ...  ....",
"..   ..... .........@@@###$$$$%%%%%%#######@@@........  .   ....",
"...    .   .........@@@###$$$$%%%%%%#######@@@......... .  .....",
"....   .  .........O@@@###$$$$%%%%%%#######@@@..................",
"................ ..O@@@###$$$$###%%%#######@@@..........&.......",
"................  ..@@@###$$$$###%%%#######@@@.........&&.......",
"................   .@@@###$$$$###%%%#######@@@....&&&.&&&.......",
".........ooo.....  .@@@###$$$$###%%%#######@@@.....&&.&&........",
"....ooo.ooo.........@@@###$$$$%%%%%%#######@@@ ....  ....... ...",
".....oo.oo..........@@@###$$$$%%%%%%#######@@@   .   .......  ..",
"   .................@@@###$$$$%%%%%%#######@@@.  .  ........   .",
"  ..................@@@###$$$$%%%%%%$$$$$$$@@@...............  .",
"....................@@@###$$$$%%%%%%$$$$$$$@@@..................",
"..........    ...   @@@###$$$$%%%%%%$$$$$$$@@@..................",
"...........    .   .@@@###$$$$###%%%$$$$$$$@@@..................",
".............  .  ..@@@###$$$$###%%%$$$$$$$@@@..................",
"..   ...............@@@###$$$$###%%%$$$$$$$@@@............... ..",
".   ................@@@###$$$$###%%%$$$$$$$@@@...... ........  .",
".  .................@@@###$$$$###%%%$$$$$$$@@@ ....  .........  ",
"....................@@@###$$$$###%%%$$$$$$$@@@   .   .........  ",
"................    @@@###$$$$###%%%$$$$$$$@@@   .  ............",
"..........++....++  @@@###$$$$###%%%$$$$$$$@@@..................",
"...........+++.++.. @@@###$$$$###%%%$$$$$$$@@@.............XXX..",
"...........+++.++...@@@###$$$$###%%%$$$$$$$@@@.......XXX..XXX...",
"..... .... .++......@@@###$$$$$$$%%%$$$$$$$@@@........XXX.XX....",
".....  ..  .........@@@###$$$$$$$%%%$$$$$$$@@@.........XX.   ...",
".....   .  .........@@@###$$$$$$$%%%$$$$$$$@@@.......  ..   ....",
"......  ............@@@###$$$$$$$%%%$$$$$$$@@@........  .  .....",
"....................@@@##########%%%$$$$$$$@@@........  ........",
".................. .@@@##########%%%$$$$$$$@@@..................",
"..................  @@@##########%%%$$$$$$$@@@..................",
"..................   ..@@@####%%%*******@@@.....................",
"...................  . @@@####%%%*******@@@. ...................",
"...................... @@@####%%%*******@@@.+++..  .............",
".o... oo...............@@@#######*******@@@+++ .  ........&.....",
".ooo.oo... .........O..@@@#######*******@@@++  .  .&&&..&&&.....",
"..oo.oo .  .OOO...OOO..@@@#######*******@@@..  .....&&&.&&..... ",
"......  .....OOO.OOO...@@@#######*******@@@..........&&. .....  ",
"..............OO.OO.......@@@@@@@@@@@@@@................   ..   ",
"...........   ...   ......@@@@@@@@@@@@@@.   .............   .  .",
"............   .   .......@@@@@@@@@@@@@@   ...............  ....",
".............  .  ..................   .  ......................",
".....................................  .........................",
".......................... .....................................",
"..... .............   ...  ...............   ...  ..............",
"....  ..............   .   ................   .  .............. "
};
