/* XPM */
static char *result[] = {
/* columns rows colors chars-per-pixel */
"64 64 229 2 ",
"   c #4E6722",
".  c #4A6020",
"X  c #45581E",
"o  c #2F3A15",
"O  c #293212",
"+  c #344217",
"@  c #43561D",
"#  c #303915",
"$  c #21170E",
"%  c #160C0A",
"&  c #080505",
"*  c #1D0F0C",
"=  c #0F0807",
"-  c #0C0706",
";  c #1A0D0B",
":  c #252010",
">  c #466F4A",
",  c #3B4C1A",
"<  c #485D20",
"1  c #3A4319",
"2  c #2C1A19",
"3  c #36201F",
"4  c #44221C",
"5  c #321914",
"6  c #47231B",
"7  c #5C342E",
"8  c #552E28",
"9  c #130A09",
"0  c #3D1E17",
"q  c #391C16",
"w  c #4C8140",
"e  c #1E230E",
"r  c #724441",
"t  c #7C4C4B",
"y  c #522B25",
"u  c #875454",
"i  c #364418",
"p  c #111109",
"a  c #0F0909",
"s  c #1D1212",
"d  c #391D18",
"f  c #593635",
"g  c #523332",
"h  c #69403F",
"j  c #46251F",
"k  c #2B1611",
"l  c #724747",
"z  c #4E2C27",
"x  c #603937",
"c  c #110908",
"v  c #341A14",
"b  c #21110E",
"n  c #4B261E",
"m  c #281512",
"M  c #0A0606",
"N  c #1B200D",
"B  c #42561D",
"V  c #465B1F",
"C  c #252D11",
"Z  c #0A0706",
"A  c #2B1B1B",
"S  c #552F2A",
"D  c #4B2720",
"F  c #281614",
"G  c #1C1111",
"H  c #140B0A",
"J  c #0F0808",
"K  c #160D0C",
"L  c #1A0F0F",
"P  c #2F1712",
"I  c #59312B",
"U  c #522D28",
"Y  c #0C0A07",
"T  c #14150A",
"R  c #384718",
"E  c #190F08",
"W  c #5D3712",
"Q  c #6E4114",
"!  c #4C2D0F",
"~  c #5C332E",
"^  c #332020",
"/  c #1F1F10",
"(  c #231615",
")  c #573533",
"_  c #6B3E3B",
"`  c #4E2821",
"'  c #402019",
"]  c #24120F",
"[  c #2D190D",
"{  c #5A3512",
"}  c #90551B",
"|  c #8E541A",
" . c #9E5D1D",
".. c #7E4A17",
"X. c #764615",
"o. c #96581B",
"O. c #824D18",
"+. c #361B15",
"@. c #43211A",
"#. c #4E2921",
"$. c #40221D",
"%. c #2C3714",
"&. c #291511",
"*. c #150D0D",
"=. c #3A2424",
"-. c #452B2A",
";. c #251512",
":. c #3C230E",
">. c #673D14",
",. c #9D5D1D",
"<. c #A15F1D",
"1. c #B16920",
"2. c #B56B21",
"3. c #864F18",
"4. c #7A4816",
"5. c #A9641F",
"6. c #AD6620",
"7. c #5D3A3A",
"8. c #48332C",
"9. c #2B3613",
"0. c #3D2F24",
"q. c #482D2D",
"w. c #281410",
"e. c #201211",
"r. c #211510",
"t. c #36200D",
"y. c #3B230D",
"u. c #754516",
"i. c #92561B",
"p. c #864F19",
"a. c #583411",
"s. c #351E0E",
"d. c #673C38",
"f. c #522F2B",
"g. c #292811",
"h. c #2B3315",
"j. c #452B2B",
"k. c #39220D",
"l. c #764616",
"z. c #A5621E",
"x. c #95581B",
"c. c #2A190A",
"v. c #301911",
"b. c #3F511B",
"n. c #131409",
"m. c #170E0D",
"M. c #341F1D",
"N. c #1E110F",
"B. c #3D201B",
"V. c #321F1F",
"C. c #2B1A19",
"Z. c #1F260F",
"A. c #22120E",
"S. c #0D0807",
"D. c #4F2F2D",
"F. c #24130F",
"G. c #2F1D1C",
"H. c #603632",
"J. c #7C4917",
"K. c #975A1C",
"L. c #663C13",
"P. c #030202",
"I. c #070404",
"U. c #472E2E",
"Y. c #523636",
"T. c #170F0F",
"R. c #211210",
"E. c #6E413E",
"W. c #543210",
"Q. c #211407",
"!. c #170E06",
"~. c #693F3D",
"^. c #6C4444",
"/. c #1C1212",
"(. c #4B2C0E",
"). c #724315",
"_. c #7A4817",
"`. c #523110",
"'. c #321B18",
"]. c #587326",
"[. c #181B0C",
"{. c #482C2B",
"}. c #412828",
"|. c #91561B",
" X c #4A2C0E",
".X c #1E1208",
"XX c #150D05",
"oX c #190F06",
"OX c #844E18",
"+X c #8D541A",
"@X c #2B1A09",
"#X c #A15F1E",
"$X c #633934",
"%X c #1A100F",
"&X c #3E250D",
"*X c #57332F",
"=X c #180E0D",
"-X c #271708",
";X c #2F1C09",
":X c #663D14",
">X c #844E19",
",X c #AB651F",
"<X c #3E250C",
"1X c #704315",
"2X c #5C3711",
"3X c #704215",
"4X c #482B0E",
"5X c #39220C",
"6X c #9C5D1D",
"7X c #B06820",
"8X c #1D281C",
"9X c #472A27",
"0X c #241717",
"qX c #331D1C",
"wX c #68892D",
"eX c #673D3A",
"rX c #331D1B",
"tX c #402624",
"yX c #241413",
"uX c #281716",
"iX c #3D2423",
"pX c #3D2626",
"aX c #130C0C",
"sX c #402421",
"dX c #4E2F2D",
"fX c #4F3131",
"gX c #160E0E",
"hX c #41531C",
"jX c #1C210D",
/* pixels */
"  . . .     . . . . . . . . . . . . . . .     .     . . . . . . . . . . . . . . . . . .     .   . . . . . . . . . . . . . . .   ",
"    .     . . . . . . . . . . . . . . . . . . . . . . . . . . . . . . . . . . . . . . . . . . . . . . . . . . . . . . . . . .   ",
"    .     . . . . . . . . . . . . . . . . . . . X o O O O O O O O O O O O O O + . . . . . . . . . . . . . . . . . . . . . . .   ",
"    . . . . . . . .   . . . .   . . . . . @ + + # $ % & % * * * * * * * = - ; : + + + . . . . . . . . . > > > . . > > . . . . . ",
". . . . . . . . . .     . .     . . , < < 1 * 2 3 4 5 & 5 6 6 6 6 7 8 6 * 9 0 q * * * + + + @ . . . . . . > > . > > . . . . . . ",
". . . . . . . . . .     w .     . . e & & * 6 r t y 5 & 5 6 6 6 6 u r 6 * 9 0 6 6 6 6 & & & + .     . . .   . . > > . . . . . . ",
". . . . . . w . . . w w w @ i p a s d 6 t f 9 g h j k & k 0 l z 0 l x 0 ; c v 0 0 b 9 6 n y m c M N B V     . . . . . . . . . . ",
". . . . . . w w w . w w . C p Z A l S 6 y D 0 F G H = & J 9 s K 9 s L 9 - M c 9 9 P 0 6 I t U v c Y T R . . . . . . . . . . . . ",
".   . . . . . w w . . + & 5 6 6 5 & 5 6 6 5 & & E W Q Q Q Q Q Q Q Q Q Q Q Q Q ! & & & 6 6 6 * 9 0 ~ u ^ & . . . . . . . . . . . ",
"    . . . . . . . . e / ( ) _ ` ' 5 ] * * [ ! ! { } | Q |  . . . . . . ...X.o.O.! ! ! * * * k +.@.#.7 $.5 e %.. . . . .     . . ",
"    . . .   . . %.e 5 &.*.=.-.;.* * :.! ! >.,.,.<.1.,.Q  .2.2.2.2.2.2.2.3.4.5.6.,.,.,.! ! ! [ * * k 6 k * 7.8.e , . . . .     . ",
"  . . . .   B 9.0.q.6 0 w.e.r.t.y.y.u.i.Q p.2.2.2.2.,.Q  .2.2.2.2.2.2.2.3.4.5.2.2.2.2.Q 4.i.a.y.y.s.w.w.w.d.f.w.g.o X . .     . ",
". . . . V R h.*.j.7.5 5 5 [ k.l.3.3.z.2.Q p.2.2.2.2.,.Q  .2.2.2.2.2.2.2.3.4.5.2.2.2.2.Q p.2.x.3.3.>.c.v.5 5 5 5 ] $ # , .     . ",
". . . . b.n.m.M.N.9 9 J & ! 4.5.2.2.2.2.Q p.2.2.2.2.,.Q  .2.2.2.2.2.2.2.3.4.5.2.2.2.2.Q p.2.2.2.2.,.Q c.& 9 9 9 +.0 9 e . . . . ",
". . . . b.n.* 6 6 6 6 5 & ! 4.5.2.2.2.2.Q p.2.2.2.2.,.Q  .2.2.2.2.2.2.2.3.4.5.2.2.2.2.Q p.2.2.2.2.,.Q c.& 6 6 6 6 0 9 e . . . . ",
". . . . b.n.* 6 r u 6 5 & ! 4.5.2.2.2.2.Q p.2.2.2.2.,.Q  .2.2.2.2.2.2.2.3.4.5.2.2.2.2.Q p.2.2.2.2.,.Q c.& 6 6 6 r l s e . . . . ",
". . . . b.n.- 9 B.y 6 5 & ! 4.5.2.2.2.2.Q p.2.2.2.2.,.Q  .2.2.2.2.2.2.2.3.4.5.2.2.2.2.Q p.2.2.2.2.,.Q c.& t _ 6 #.j H e . . . . ",
". . . . b.n.% 5 ] * * % & ! 4.5.2.2.2.2.Q p.2.2.2.2.,.Q  .2.2.2.2.2.2.2.3.4.5.2.2.2.2.Q p.2.2.2.2.,.Q c.& V.C.* * ; - Z.. . . . ",
". . . . b.n.* 6 5 w.w.* & ! 4.5.2.2.2.2.Q p.2.2.2.2.,.Q  .2.2.2.2.2.2.2.3.4.5.2.2.2.2.Q p.2.2.2.2.,.Q c.& w.w.w.w.A.S.Z.. . . . ",
". .     B n.* 6 8 ~ 6 5 & ! 4.5.2.2.2.2.Q p.2.2.2.2.,.Q  .2.2.2.2.2.2.2.3.4.5.2.2.2.2.Q p.2.2.2.2.,.Q c.& 6 6 6 6 0 9 Z.. . . . ",
". . .   B T % 5 D.7.5 F.& ! 4.5.2.2.2.2.Q p.2.2.2.2.,.Q  .2.2.2.2.2.2.2.3.4.5.2.2.2.2.Q p.2.2.2.2.,.Q c.& 6 6 6 q k J e . . . . ",
". . . . B T & & & & & & & ! 4.5.2.2.2.2.Q p.2.2.2.2.,.Q  .2.2.2.2.2.2.2.3.4.5.2.2.2.2.Q p.2.2.2.2.,.Q c.& 6 6 6 * & & e . . . . ",
". . . . b.n.G.t H.y 6 5 & ! 4.5.2.2.2.2.Q p.2.2.2.2.,.Q  .2.2.2.2.2.2.2.3.4.5.2.2.2.2.Q J.K.K.K.K.L.P.I.& 9 9 9 U.Y.T.e . . . . ",
". . . . b.n.R.y E.t 6 5 & ! 4.5.2.2.2.2.Q p.2.2.2.2.,.Q  .2.2.2.2.2.2.2.3.4.5.2.2.2.2.Q W.Q.Q.Q.Q.!.P.I.& 0 0 0 ~.^./.e . . . . ",
". . . . b.n.* 6 6 6 6 5 & ! 4.5.2.2.2.2.Q p.2.2.2.2.,.Q  .2.2.2.2.2.2.2.3.4.5.2.2.2.2.Q (.P.P.P.P.P.P.I.& 6 7 u ~ 0 9 e . . . . ",
". . . . b.n.* 6 k * * % & ! 4.5.2.2.2.2.Q p.2.2.2.2.,.Q  .2.2.2.2.2.2.2.3.4.5.2.2.2.2.Q )._._._._.`.P.I.& * '.7 #.0 9 e . . . . ",
". . . . ].[.= * {.7.7.}.& ! 4.5.2.2.2.2.Q p.2.2.2.2.,.Q  .2.2.2.2.2.2.2.3.4.5.2.2.2.2.Q p.2.2.2.2.|. X.X& 5 k * * ; - e   . . . ",
". . . . b.[.9 w.f.d.u 7.& ! 4.5.2.2.2.2.Q p.2.2.2.2.,.Q  .2.2.2.2.2.2.2.3.4.5.2.2.2.2.Q p.2.2.2.2.,.Q c.& 6 0 w.w.A.S.e     . . ",
"      . b.n.* 6 6 6 r D.& ! 4.5.2.2.2.2.Q p.2.2.2.2.,.Q  .2.2.2.2.2.2.2.3.4.5.2.2.2.2.Q p.2.2.2.2.,.Q c.& 6 6 6 6 0 9 e       . ",
"    . . b.n.; 0 0 0 6 5 & ! 4.5.2.2.2.2.Q p.2.2.2.2.,.Q  .2.2.2.2.2.2.2.3.4.5.2.2.2.2.Q p.2.2.2.2.,.Q c.& 6 6 6 6 0 9 e .     . ",
". . . . b.n.& & & & 6 5 & ! 4.5.2.2.2.2.Q p.2.2.2.2.,.Q  .2.2.2.2.2.2.2.3.4.5.2.2.2.2.Q p.2.2.2.2.,.Q c.& 6 6 6 6 0 9 e . . . . ",
". . . . b.n.* 6 r u & & & ! 4.5.2.2.2.2.Q p.2.2.2.2.,.Q  .2.2.2.2.2.2.2.3.4.5.2.2.2.2.Q p.2.2.2.2.,.Q c.& 6 5 & & & & e . . . . ",
". . . . b.n.* 6 ` y 0 k & ! 4.5.2.2.`.Q.XXoXQ.OX2.2.,.Q  .2.2.2.2.2.2.2.3.4.5.2.2.2.2.Q p.2.2.2.2.,.Q c.& 9 b 0 0 v c e . . . . ",
". . . . b.n.* 6 6 6 6 5 & ! 4.5.2.2.+X_.P.@X_.#X2.2.,.Q  .2.2.2.2.2.2.2.3.4.5.2.2.2.2.Q p.2.2.2.2.,.Q c.& 5 q 6 $Xx %Xe . . . . ",
". .     B n.9 w.w.w.6 5 & ! 4.5.2.2.2.2.P.&X2.2.2.2.,.Q  .2.2.2.2.2.2.2.3.4.5.2.2.2.2.Q p.2.2.2.2.,.Q c.& 6 6 6 ~ *X=Xe .   . . ",
".       b.n.= * * * 5 ] & ! 4.5.2.2.+X_.P.@X_.#X2.2.,.Q  .2.2.2.2.2.2.2.3.4.5.2.2.2.2.Q p.2.2.2.2.,.Q c.& 5 5 5 5 k = e .     . ",
".     . b.n.* 6 6 6 * % & ! 4.5.#X_.`.&X-X;X&X:X>X,X,.Q  .2.2.2.2.2.2.2.3.4.5.2.2.2.2.Q p.2.2.2.2.,.Q c.& * * * * ; - e . .     ",
". . . . b.n.* 6 6 6 6 5 & ! 4.5._.P._.2.Q p.2.<XQ.K.,.Q  .2.2.2.2.2.2.2.3.4.5.2.2.2.2.Q p.2.2.2.2.,.Q c.& 6 6 6 6 0 9 e . .     ",
". . . . b.n.; 0 0 0 0 k & ! 4.5.OXQ.1XK.2X3XK.4X5X6X,.Q  .2.2.2.2.2.2.2.3.4.5.2.2.2.2.Q p.2.2.2.2.,.Q c.& y ` 6 ' v c e . . . . ",
". . . . b.n.- 9 9 9 9 J & ! 4.5.,XK.4XQ.XXoXQ.3X6X7X,.Q  .2.2.2.2.2.2.2.3.4.5.2.2.2.2.Q p.2.2.2.2.,.Q c.& t _ 6 ] c M e . . . . ",
". . . . b.n.* 6 6 6 6 5 & ! 4.5.2.2.2.2.Q p.2.2.2.2.,.Q  .2.2.2.2.2.2.2.3.4.5.2.2.2.2.Q p.2.2.2.2.,.Q c.& & & & 5 0 9 8X> > . . ",
". . . . b.n.* 6 6 6 6 5 & ! 4.5.2.2.2.2.Q p.2.2.2.2.,.Q  .2.2.2.2.2.2.2.3.4.5.2.2.2.2.Q p.2.2.2.2.,.Q c.& 5 5 5 ' 0 9 8X> . . . ",
". . . . b.T C.r 8 6 6 5 & ! 4.5.2.2.2.2.Q p.2.2.2.2.,.Q  .2.2.2.2.2.2.2.3.4.5.2.2.2.2.Q p.2.2.2.2.,.Q c.& 6 6 6 $Xx %X8X. . . . ",
". . . . b.T V.u 9Xw.w.* & ! 4.5.2.2.2.2.Q p.2.2.2.2.,.Q  .2.2.2.2.2.2.2.3.4.5.2.2.2.2.Q p.2.2.2.2.,.Q c.& w.5 6 ~ *X=XZ.  . . . ",
". . . . b.T 0X7.qX* * % & ! 4.5.2.2.2.2.Q p.2.2.2.2.,.Q  .2.2.2.2.2.2.2.3.4.5.2.2.2.2.Q p.2.2.2.2.|. X.X& * ] 5 5 k = Z.. . . . ",
". . . . b.n.- 9 +.6 6 5 & ! 4.5.2.2.2.2.Q p.2.2.2.2.,.Q  .2.2.2.2.2.2.2.3.4.5.2.2.2.2.Q J.K.K.K.K.L.P.I.& 6 +.9 9 c M e . . . . ",
". . . . b.n.* 6 6 6 6 5 & ! 4.5.2.2.2.2.Q p.2.2.2.2.,.Q  .2.2.2.2.2.2.2.3.4.5.2.2.2.2.Q (.P.P.P.P.P.P.I.& 6 6 6 6 0 9 e . . . . ",
". . . . b.n.* 6 6 6 u 7.& ! 4.5.2.2.2.2.Q p.2.2.2.2.,.Q  .2.2.2.2.2.2.2.3.4.5.2.2.2.2.Q (.P.P.P.P.P.P.I.& 6 6 6 r l s e . . . . ",
". . . . b.n.- 9 9 9 u 7.& ! 4.5.2.2.2.2.Q p.2.2.2.2.,.Q  .2.2.2.2.2.2.2.3.4.5.2.2.2.2.Q J.K.K.K.K.L.P.I.& 9 ] 6 r l s e . . . . ",
". . . . b.n.% 5 5 5 V.0X& ! 4.5.2.2.2.2.Q p.2.2.2.2.,.Q  .2.2.2.2.2.2.2.3.4.5.2.2.2.2.Q p.2.2.2.2.|. X.X& 5 k * C.A a e . . . . ",
". . . . b.n.* 6 6 6 w.* & ! 4.5.2.2.2.2.Q p.2.2.2.2.,.Q  .2.2.2.2.2.2.2.3.4.5.2.2.2.2.Q p.2.2.2.2.,.Q c.& 6 0 w.w.A.S.e . . . . ",
". . . . b.n.* 6 8 ~ 6 5 & ! 4.5.2.2.2.2.Q p.2.2.2.2.,.Q  .2.2.2.2.2.2.2.3.4.5.2.2.2.2.Q p.2.2.2.2.,.Q c.& 6 6 6 6 0 9 e . . . . ",
". wX. . b.T % 5 D.7.5 F.& ! 4.5.2.2.2.2.Q p.2.2.2.2.,.Q  .2.2.2.2.2.2.2.3.4.5.2.2.2.2.Q p.2.2.2.2.,.Q c.& 6 ` 7 $.k J e . . . . ",
". wXwXwXb.[.& & & & & & & ! 4.5.2.2.2.2.Q p.2.2.2.2.,.Q  .2.2.2.2.2.2.2.3.4.5.2.2.2.2.Q p.2.2.2.2.,.Q c.& 6 7 u V.& & e . . . . ",
". . wXwXb.[.* 6 6 6 6 5 & ! 4.5.2.2.2.2.Q p.2.2.2.2.,.Q  .2.2.2.2.2.2.2.3.4.5.2.2.2.2.Q p.2.2.2.2.,.Q c.& 9 9 9 B.j H e . . .   ",
". . . . b.n.* 6 6 6 6 5 & ! 4.5.2.2.2.2.Q p.2.2.2.2.,.Q  .2.2.2.2.2.2.2.3.4.5.2.2.2.2.Q p.2.2.2.2.,.Q c.& 0 0 0 eXh G e . .     ",
". . . . b.n.& & 5 6 6 5 & ! 4.5.2.2.2.2.Q p.2.2.2.2.,.Q  .2.2.2.2.2.2.2.3.4.5.2.2.2.2.Q p.2.2.2.2.,.Q c.& 6 7 u ~ 0 9 e .       ",
". . . . b.n.0X7.rX* * % & ! 4.5.2.2.2.2.Q p.2.2.2.2.,.Q  .2.2.2.2.2.2.2.3.4.5.2.2.2.2.Q p.2.2.2.2.,.Q c.& * tXu ~ 0 9 Z..     . ",
". . . . b.n.yX~ $.5 5 ] & ! ).O.3.3.3.3.Q l.3.3.3.3...Q ..3.3.3.3.3.3.3.X.).O.3.3.3.3.Q l.3.3.3.3...Q c.& 5 '.V.yX; - Z.. . . . ",
". . . . b.n.uXd.y 6 6 5 & c.y.y.y.y.y.y.y.y.y.y.y.y.y.y.y.y.y.y.y.y.y.y.y.y.y.y.y.y.y.y.y.y.y.y.y.y.y.E & 6 0 w.iXpXaXe . . . . ",
". . . . b.n.0X7.sX5 5 ] & & & & & & & & & & & & & & & & & & & & & & & & & & & & & & & & & & & & & & & & & 5 5 5 dXfXgXe . . . . ",
". . . . hXjXn.n.n.n.n.n.n.n.n.n.n.n.n.n.n.n.n.n.n.n.T n.n.n.n.n.n.n.n.n.n.n.n.n.n.n.n.n.n.n.n.n.n.n.n.n.n.n.n.n.n.n.n.C . . . . ",
". . . . .   . . . . . . . . . . . . .       . . .     . . . . . . . . . . . . . . .       . . .     . . . . . . . . . . . . . . ",
". . . .     . . . . . . . . . . . . . .       .       . . . . . . . . . . . . . . . .       .     . . . . . . . . . . . . . .   "
};
