/* XPM */
static char *result[] = {
/* columns rows colors chars-per-pixel */
"64 64 25 1 ",
"  c #4E6722",
". c #4A6020",
"X c #466F4A",
"o c #68892D",
"O c #657D24",
"+ c #4C8140",
"@ c black",
"# c #253010",
"$ c white",
"% c #808080",
"& c gray75",
"* c #374818",
"= c gray78",
"- c gray89",
"; c #F1F1F1",
": c #B6B6B6",
"> c #D5D5D5",
", c #A4A4A4",
"< c gray32",
"1 c #848484",
"2 c #8D8D8D",
"3 c #646464",
"4 c #273311",
"5 c #6A7C27",
"6 c #353E13",
/* pixels */
" ...  ...............  .  ..................  . ............... ",
"  .  .......................................................... ",
"  .  .......................................................... ",
"  ........ .... .............  ....   ..............XXX..XX.....",
"..........  ..  ...ooo...o....  ..   .....O..........XX.XX......",
"..........  +.  ....ooo.oo....   .  OO..OOO.....  ... ..XX......",
"......+...+++........oo.oo.....  ....OO.OO.......  .  ..........",
"......+++.++.........................OO..........  .............",
". .....++......... ...  ..............  ...   ..................",
"  ................  .  ................  .   ...............  ..",
"  ... ..... ....... .  ...................  .................  .",
" ....   ..  .................................................  .",
"......  .   ..................................@@@@@@.........  .",
".........  ................   ...  ........#@@$$$$$$@@@.........",
"............................   .  .......@@%$$$$$$$$$$$@@.......",
".................... ........  .  ......#%%&$$$$$$$$$$$%%#*.....",
"..............  ..   ...................@$$$$$$$$$$$$$$$$@#.....",
"...............  .  ....................@$$$$$$$$$$$$$$$$@# ....",
"................ .....................#@$$$$$$$$$$$$$$$$$$%@....",
"..   ..... ..................... .+++@%$$$$$$$$$$$$$$$$$$$$$@...",
"...    .   .............OOO ...  ..++@%$$$$$$$$$$$$$$$$$$$$$@...",
"....   .  .........O...OOO   .   ...+@%$$$$$$$$$$$$$$$$$$$$$@...",
"................ ..OOO.OO..  .  ....@$$$$$@@@$$$$$$$$%@@$$$$$@..",
"................  ..OO .............@$$$$@@@@@$$$$$$@@@@@$$$$@..",
"................   .  ..............@$$$@@@%$@$$$$$$@%$@@@%$$@..",
".........ooo.....  ................#%$$$@@@%$@$$$$$$@%$@@@%$$%#.",
"....ooo.ooo........................@$$$$@@@%$@$$$$$$@%$@@@%$$$@.",
".....oo.oo.........................@$$$$@@@%$@$$$$$$@%$@@@%$$$@.",
"   ................................@$$$$@@@@@@$$$$$$@@@@@@%$$$@.",
"  .................................@$$$$$@@@@$$$$$$$$%@@@$$$$$@.",
"......................... .... ....@$$$$$%%%%$$$$$$$$&%%%$$$$$@.",
"..........    ...   .....  ..  ....@$$$$$$$$$$$$$$$$$$$$$$$$$$@.",
"...........    .   ......   .  ....@$$$$$$$$$$$$$$$$$$$$$$$$$$@.",
".............  .  ........  .......@$$$$$$$$$$$$$$$$$$$$$$$$$$@.",
"..   ..............................@$$$$$$$$$$$$$$$$$$$$$$$$$$@.",
".   ...............................@$$$$$$$$$$$$$$$$$$$$$$$$$$@.",
".  ................................@$$$$$$$$$$$$$$$$$$$$$$$$$$@ ",
"....................... ...........@$$$$$$$$$$$$$$$$$$$$$$$$$$@ ",
"................    ..  .........o.@$$$$$$$$$$$$$$$$$$$$$$$$$$@.",
"..........++....++   .  .........oo@$$$$$$$$$$$$$$$$$$$$$$$$$$@.",
"...........+++.++..  ....... ....oo@$$$$$$$$$$$$$$$$$$$$$$$$$$@.",
"...........+++.++...........   .. o@$$$$$$$$$$$$$$$$$$$$$$$$$$@.",
"..... .... .++...............   .  @$$$$$$$$$$$$$$$$$$$$$$$$$$@.",
".....  ..  ...................  ...@$$$$$=$$$$$$$$$$$$$$$$$$$$@.",
".....   .  ........................@$$$$===-$$$$$$$$$$$$$$$$$$@.",
"......  ...........................@-$;-=:=>-$$$$$-$$$$$$$$$$$@.",
"...................................@=$-==,===$$$$$=$$$$$$$$$$$@.",
".................. ................@====,@,:==$$-=,=$$$$====$=@.",
"..................   ..............@,===@.@<,===:,@,====,@<,==@.",
"..................   ..   ..........@=:,@..#@,=,<@.@,:==@.#@=,@.",
"...................  .   ...........@:1<#..#@,=,<@.#<2=:@.#@:<#.",
"......................  ..........o.@,<@...#@,=,<@ .@3=,@.#@,@..",
".o... oo.................. .o...ooo.@,<@+..++@,@4 ..@<,,@.5.@...",
".ooo.oo... .........O.....  ooo.oo ..@#.++.++ @.  .5@<,@555.....",
"..oo.oo .  .OOO...OOO......  oo   ......++...  .....56@.55..... ",
"......  .....OOO.OOO........  .  ....................55. .....  ",
"..............OO.OO.....................................   ..   ",
"...........   ...   ................ ....   .............   .  .",
"............   .   .................  ..   ...............  ....",
".............  .  ..................   .  ......................",
".....................................  .........................",
".......................... .....................................",
"..... .............   ...  ...............   ...  ..............",
"....  ..............   .   ................   .  .............. "
};
