/* XPM */
static char *result[] = {
/* columns rows colors chars-per-pixel */
"64 64 25 1 ",
"  c #4E6722",
". c #4A6020",
"X c #466F4A",
"o c #68892D",
"O c #657D24",
"+ c #4C8140",
"@ c black",
"# c #253010",
"$ c white",
"% c #808080",
"& c gray75",
"* c #374818",
"= c #6A7C27",
"- c gray78",
"; c gray89",
": c #F1F1F1",
"> c #B6B6B6",
", c #D5D5D5",
"< c #A4A4A4",
"1 c gray32",
"2 c #273311",
"3 c #848484",
"4 c #8D8D8D",
"5 c #646464",
"6 c #344416",
/* pixels */
" ...  ...............  .  ..................  . ............... ",
"  .  .......................................................... ",
"  .  .......................................................... ",
"  ........ .... .............  ....   ..............XXX..XX.....",
"..........  ..  ...ooo...o....  ..   .....O..........XX.XX......",
"..........  +.  ....ooo.oo....   .  OO..OOO.....  ... ..XX......",
"......+...+++........oo.oo.....  ....OO.OO.......  .  ..........",
"......+++.++.........................OO..........  .............",
". .....++......... ...  ..............  ...   ..................",
"  ................  .  ................  .   ...............  ..",
"  ... ..... ....... .  ...................  .................  .",
" ....   ..  .................................................  .",
"......  .   ...........@@@@@@................................  .",
".........  .........#@@$$$$$$@@@.  .............................",
"..................@@%$$$$$$$$$$$@@..............................",
".................#%%&$$$$$$$$$$$%%#*......   ... ...............",
"..............  .@$$$$$$$$$$$$$$$$@#.......   .  ...............",
"...............  @$$$$$$$$$$$$$$$$@#........  ............. ....",
"...............#@$$$$$$$$$$$$$$$$$$%@................  ...  ....",
"..   ..... ...@%$$$$$$$$$$$$$$$$$$$$$@..+.............  .   ....",
"...    .   ...@%$$$$$$$$$$$$$$$$$$$$$@.++.............. .  .....",
"....   .  ....@%$$$$$$$$$$$$$$$$$$$$$@.+.  .....................",
".............@$$$$$@@@$$$$$$$$%@@$$$$$@.  ..............=.......",
".............@$$$$@@@@@$$$$$$@@@@@$$$$@.  .............==.......",
".............@$$$@@@%$@$$$$$$@%$@@@%$$@...........===.===.......",
".........ooo#%$$$@@@%$@$$$$$$@%$@@@%$$%#...........==.==........",
"....ooo.ooo.@$$$$@@@%$@$$$$$$@%$@@@%$$$@...... ....  ....... ...",
".....oo.oo..@$$$$@@@%$@$$$$$$@%$@@@%$$$@......   .   .......  ..",
"   .........@$$$$@@@@@@$$$$$$@@@@@@%$$$@  .....  .  ........   .",
"  ..........@$$$$$@@@@$$$$$$$$%@@@$$$$$@ ....................  .",
"............@$$$$$%%%%$$$$$$$$&%%%$$$$$@ .......................",
"..........  @$$$$$$$$$$$$$$$$$$$$$$$$$$@........................",
"........... @$$$$$$$$$$$$$$$$$$$$$$$$$$@........................",
"............@$$$$$$$$$$$$$$$$$$$$$$$$$$@........................",
"..   .......@$$$$$$$$$$$$$$$$$$$$$$$$$$@..................... ..",
".   ........@$$$$$$$$$$$$$$$$$$$$$$$$$$@............ ........  .",
".  .........@$$$$$$$$$$$$$$$$$$$$$$$$$$@....   ....  .........  ",
"............@$$$$$$$$$$$$$$$$$$$$$$$$$$@.....    .   .........  ",
"............@$$$$$$$$$$$$$$$$$$$$$$$$$$@......   .  ............",
"..........++@$$$$$$$$$$$$$$$$$$$$$$$$$$@........................",
"...........+@$$$$$$$$$$$$$$$$$$$$$$$$$$@...................XXX..",
"...........+@$$$$$$$$$$$$$$$$$$$$$$$$$$@.............XXX..XXX...",
"..... .... .@$$$$$$$$$$$$$$$$$$$$$$$$$$@..............XXX.XX....",
".....  ..  .@$$$$$-$$$$$$$$$$$$$$$$$$$$@....  .........XX.   ...",
".....   .  .@$$$$---;$$$$$$$$$$$$$$$$$$@ ..  ........  ..   ....",
"......  ....@;$:;->-,;$$$$$;$$$$$$$$$$$@  .  .........  .  .....",
"............@-$;--<---$$$$$-$$$$$$$$$$$@  ............  ........",
"............@----<@<>--$$;-<-$$$$----$-@........................",
"............@<---@ @1<---><@<----<@1<--@........................",
".............@-><@  2@<-<1@.@<>--@.#@-<@........................",
".............@>31#. 2@<-<1@.#14->@.#@>1#.... ...................",
".............@<1@...#@<-<1@..@5-<@o#@<@.....+++..  .............",
".o... oo.....@<1@.....@<@# .o@1<<@o..@.++..+++ .  ........=.....",
".ooo.oo... ...@#....O..@..  o@1<@o .....++.++  .  .===..===.....",
"..oo.oo .  .OOO...OOO......  o6@  ......++...  .....===.==..... ",
"......  .....OOO.OOO........  .  ....................==. .....  ",
"..............OO.OO.....................................   ..   ",
"...........   ...   ................ ....   .............   .  .",
"............   .   .................  ..   ...............  ....",
".............  .  ..................   .  ......................",
".....................................  .........................",
".......................... .....................................",
"..... .............   ...  ...............   ...  ..............",
"....  ..............   .   ................   .  .............. "
};
