/* XPM */
static char *result[] = {
/* columns rows colors chars-per-pixel */
"64 64 24 1 ",
"  c #4E6722",
". c #4A6020",
"X c #466F4A",
"o c #68892D",
"O c #657D24",
"+ c #4C8140",
"@ c black",
"# c #253010",
"$ c white",
"% c #808080",
"& c gray75",
"* c #374818",
"= c #6A7C27",
"- c #273311",
"; c gray78",
": c gray89",
"> c #F1F1F1",
", c #B6B6B6",
"< c #D5D5D5",
"1 c #A4A4A4",
"2 c gray32",
"3 c #848484",
"4 c #8D8D8D",
"5 c #646464",
/* pixels */
" ...  ...............  .  ..................  . ............... ",
"  .  .......................................................... ",
"  .  .......................................................... ",
"  ........ .... .............  ....   ..............XXX..XX.....",
"..........  ..  ...ooo...o....  ..   .....O..........XX.XX......",
"..........  +.  ....ooo.oo....   .  OO..OOO.....  ... ..XX......",
"......+...+++........oo.oo.....  ....OO.OO.......  .  ..........",
"......+++.++.........................OO..........  .............",
". .....++......... ...  ..............  ...   ..................",
"  ................  .  ................  .   ...............  ..",
"  ... ..... ....... .  ...................  .................  .",
" ....   ..  .................................................  .",
"......  .   .................@@@@@@..........................  .",
".........  ...............#@@$$$$$$@@@..........................",
"........................@@%$$$$$$$$$$$@@........................",
".................... ..#%%&$$$$$$$$$$$%%#*   ... ...............",
"..............  ..   ..@$$$$$$$$$$$$$$$$@#.   .  ...............",
"...............  .  ...@$$$$$$$$$$$$$$$$@#..  ............. ....",
"................ ....#@$$$$$$$$$$$$$$$$$$%@..........  ...  ....",
"..   ..... .........@%$$$$$$$$$$$$$$$$$$$$$@..........  .   ....",
"...    .   .........@%$$$$$$$$$$$$$$$$$$$$$@........... .  .....",
"....   .  .........O@%$$$$$$$$$$$$$$$$$$$$$@....................",
"................ ..@$$$$$@@@$$$$$$$$%@@$$$$$@...........=.......",
"................  .@$$$$@@@@@$$$$$$@@@@@$$$$@..........==.......",
"................   @$$$@@@%$@$$$$$$@%$@@@%$$@.....===.===.......",
".........ooo..... -%$$$@@@%$@$$$$$$@%$@@@%$$%#.....==.==........",
"....ooo.ooo.......@$$$$@@@%$@$$$$$$@%$@@@%$$$@ ....  ....... ...",
".....oo.oo........@$$$$@@@%$@$$$$$$@%$@@@%$$$@   .   .......  ..",
"   ...............@$$$$@@@@@@$$$$$$@@@@@@%$$$@.  .  ........   .",
"  ................@$$$$$@@@@$$$$$$$$%@@@$$$$$@...............  .",
"..................@$$$$$%%%%$$$$$$$$&%%%$$$$$@..................",
"..........    ... @$$$$$$$$$$$$$$$$$$$$$$$$$$@..................",
"...........    .  @$$$$$$$$$$$$$$$$$$$$$$$$$$@..................",
".............  .  @$$$$$$$$$$$$$$$$$$$$$$$$$$@..................",
"..   .............@$$$$$$$$$$$$$$$$$$$$$$$$$$@............... ..",
".   ..............@$$$$$$$$$$$$$$$$$$$$$$$$$$@...... ........  .",
".  ...............@$$$$$$$$$$$$$$$$$$$$$$$$$$@ ....  .........  ",
"..................@$$$$$$$$$$$$$$$$$$$$$$$$$$@   .   .........  ",
"................  @$$$$$$$$$$$$$$$$$$$$$$$$$$@   .  ............",
"..........++....++@$$$$$$$$$$$$$$$$$$$$$$$$$$@..................",
"...........+++.++.@$$$$$$$$$$$$$$$$$$$$$$$$$$@.............XXX..",
"...........+++.++.@$$$$$$$$$$$$$$$$$$$$$$$$$$@.......XXX..XXX...",
"..... .... .++....@$$$$$$$$$$$$$$$$$$$$$$$$$$@........XXX.XX....",
".....  ..  .......@$$$$$;$$$$$$$$$$$$$$$$$$$$@.........XX.   ...",
".....   .  .......@$$$$;;;:$$$$$$$$$$$$$$$$$$@.......  ..   ....",
"......  ..........@:$>:;,;<:$$$$$:$$$$$$$$$$$@........  .  .....",
"..................@;$:;;1;;;$$$$$;$$$$$$$$$$$@........  ........",
"..................@;;;;1@1,;;$$:;1;$$$$;;;;$;@..................",
"..................@1;;;@.@21;;;,1@1;;;;1@21;;@..................",
".................. @;,1@  #@1;12@.@1,;;@.#@;1@..................",
"...................@,32- .#@1;12@.#24;,@.#@,2#..................",
"...................@12@ ..#@1;12@.o@5;1@.#@1@++..  .............",
".o... oo...........@12@... .@1@#ooo@211@+..@++ .  ........=.....",
".ooo.oo... .........@#....  o@o.oo @21@.++.++  .  .===..===.....",
"..oo.oo .  .OOO...OOO......  oo   ..#@..++...  .....===.==..... ",
"......  .....OOO.OOO........  .  ....................==. .....  ",
"..............OO.OO.....................................   ..   ",
"...........   ...   ................ ....   .............   .  .",
"............   .   .................  ..   ...............  ....",
".............  .  ..................   .  ......................",
".....................................  .........................",
".......................... .....................................",
"..... .............   ...  ...............   ...  ..............",
"....  ..............   .   ................   .  .............. "
};
