/* XPM */
static char *result[] = {
/* columns rows colors chars-per-pixel */
"64 64 26 1 ",
"  c #4E6722",
". c #4A6020",
"X c #466F4A",
"o c #68892D",
"O c #657D24",
"+ c #4C8140",
"@ c black",
"# c #273311",
"$ c white",
"% c #808080",
"& c #253010",
"* c gray75",
"= c #374818",
"- c #6A7C27",
"; c gray78",
": c gray89",
"> c #F1F1F1",
", c #B6B6B6",
"< c #D5D5D5",
"1 c #A4A4A4",
"2 c gray32",
"3 c #848484",
"4 c #8D8D8D",
"5 c #646464",
"6 c #344416",
"7 c #323E12",
/* pixels */
" ...  ...............  .  ..................  . ............... ",
"  .  .......................................................... ",
"  .  .......................................................... ",
"  ........ .... .............  ....   ..............XXX..XX.....",
"..........  ..  ...ooo...o....  ..   .....O..........XX.XX......",
"..........  +.  ....ooo.oo....   .  OO..OOO.....  ... ..XX......",
"......+...+++........oo.oo.....  ....OO.OO.......  .  ..........",
"......+++.++.........................OO..........  .............",
". .....++......... ...  ..............  ...   ..................",
"  ................  .  ................  .   ...............  ..",
"  ... ..... ....... .  ...................  .................  .",
" ....   ..  .................................................  .",
"......  .   .@@@@@@..........................................  .",
"......... #@@$$$$$$@@@.....   ...  .............................",
"........@@%$$$$$$$$$$$@@....   .  ..............................",
".......&%%*$$$$$$$$$$$%%&=...  .  ........   ... ...............",
".......@$$$$$$$$$$$$$$$$@&.................   .  ...............",
".......@$$$$$$$$$$$$$$$$@&..................  ............. ....",
".....&@$$$$$$$$$$$$$$$$$$%@..........................  ...  ....",
"..  @%$$$$$$$$$$$$$$$$$$$$$@.... .+++...+.............  .   ....",
"... @%$$$$$$$$$$$$$$$$$$$$$@...  ..+++.++.............. .  .....",
"....@%$$$$$$$$$$$$$$$$$$$$$@ .   ...++.+.  .....................",
"...@$$$$$@@@$$$$$$$$%@@$$$$$@.  ....   .  ..............-.......",
"...@$$$$@@@@@$$$$$$@@@@@$$$$@........  .  .............--.......",
"...@$$$@@@%$@$$$$$$@%$@@@%$$@.....................---.---.......",
"..&%$$$@@@%$@$$$$$$@%$@@@%$$%&.....................--.--........",
"..@$$$$@@@%$@$$$$$$@%$@@@%$$$@................ ....  ....... ...",
"..@$$$$@@@%$@$$$$$$@%$@@@%$$$@................   .   .......  ..",
"  @$$$$@@@@@@$$$$$$@@@@@@%$$$@.....  ...  .....  .  ........   .",
"  @$$$$$@@@@$$$$$$$$%@@@$$$$$@......  .  ....................  .",
"..@$$$$$%%%%$$$$$$$$*%%%$$$$$@ .....  .  .......................",
"..@$$$$$$$$$$$$$$$$$$$$$$$$$$@ .................................",
"..@$$$$$$$$$$$$$$$$$$$$$$$$$$@ .................................",
"..@$$$$$$$$$$$$$$$$$$$$$$$$$$@..................................",
"..@$$$$$$$$$$$$$$$$$$$$$$$$$$@............................... ..",
". @$$$$$$$$$$$$$$$$$$$$$$$$$$@...................... ........  .",
". @$$$$$$$$$$$$$$$$$$$$$$$$$$@..............   ....  .........  ",
"..@$$$$$$$$$$$$$$$$$$$$$$$$$$@...............    .   .........  ",
"..@$$$$$$$$$$$$$$$$$$$$$$$$$$@...o............   .  ............",
"..@$$$$$$$$$$$$$$$$$$$$$$$$$$@...oo..ooo........................",
"..@$$$$$$$$$$$$$$$$$$$$$$$$$$@...ooo.oo....................XXX..",
"..@$$$$$$$$$$$$$$$$$$$$$$$$$$@ .. oo.................XXX..XXX...",
"..@$$$$$$$$$$$$$$$$$$$$$$$$$$@  .  ...................XXX.XX....",
"..@$$$$$;$$$$$$$$$$$$$$$$$$$$@  ....... ....  .........XX.   ...",
"..@$$$$;;;:$$$$$$$$$$$$$$$$$$@.........  ..  ........  ..   ....",
"..@:$>:;,;<:$$$$$:$$$$$$$$$$$@.........   .  .........  .  .....",
"..@;$:;;1;;;$$$$$;$$$$$$$$$$$@..........  ............  ........",
"..@;;;;1@1,;;$$:;1;$$$$;;;;$;@..................................",
"..@1;;;@.@21;;;,1@1;;;;1@21;;@..................................",
"...@;,1@..&@1;12@.@1,;;@ #@;1@..................................",
"...@,32&..&@1;12@.&24;,@ &@,2&.............. ...................",
"...@12@...&@1;12@..@5;1@.&@1@.....o.........+++..  .............",
".o.@12@o....@1@&...@211@.. @o...ooo....++..+++ .  ........-.....",
".ooo@6o... ..@.....@21@...  ooo.oo .....++.++  .  .---..---.....",
"..oo.oo .  .OOO...OO7@.....  oo   ......++...  .....---.--..... ",
"......  .....OOO.OOO........  .  ....................--. .....  ",
"..............OO.OO.....................................   ..   ",
"...........   ...   ................ ....   .............   .  .",
"............   .   .................  ..   ...............  ....",
".............  .  ..................   .  ......................",
".....................................  .........................",
".......................... .....................................",
"..... .............   ...  ...............   ...  ..............",
"....  ..............   .   ................   .  .............. "
};
