/* XPM */
static char *result[] = {
/* columns rows colors chars-per-pixel */
"64 64 25 1 ",
"  c #4E6722",
". c #4A6020",
"X c #466F4A",
"o c #68892D",
"O c #657D24",
"+ c #4C8140",
"@ c black",
"# c #253010",
"$ c white",
"% c #808080",
"& c #273311",
"* c gray75",
"= c #374818",
"- c #6A7C27",
"; c #353E13",
": c gray78",
"> c gray89",
", c #F1F1F1",
"< c #B6B6B6",
"1 c #D5D5D5",
"2 c #A4A4A4",
"3 c gray32",
"4 c #848484",
"5 c #8D8D8D",
"6 c #646464",
/* pixels */
" ...  ...............  .  ..................  . ............... ",
"  .  .......................................................... ",
"  .  .......................................................... ",
"  ........ .... .............  ....   ..............XXX..XX.....",
"..........  ..  ...ooo...o....  ..   .....O..........XX.XX......",
"..........  +.  ....ooo.oo....   .  OO..OOO.....  ... ..XX......",
"......+...+++........oo.oo.....  ....OO.OO.......  .  ..........",
"......+++.++.........................OO..........  .............",
". .....++......... ...  ..............  ...   ..................",
"  ................  .  ................  .   ...............  ..",
"  ... ..... ....... .  ...................  .................  .",
" ....   ..  .................................................  .",
"......  .   ...........................@@@@@@................  .",
".........  ................   ...  .#@@$$$$$$@@@................",
"............................   .  @@%$$$$$$$$$$$@@..............",
".................... ........  . &%%*$$$$$$$$$$$%%#=............",
"..............  ..   ............@$$$$$$$$$$$$$$$$@#............",
"...............  .  .............@$$$$$$$$$$$$$$$$@#....... ....",
"................ ..............#@$$$$$$$$$$$$$$$$$$%@  ...  ....",
"..   ..... ...................@%$$$$$$$$$$$$$$$$$$$$$@  .   ....",
"...    .   .............OOO ..@%$$$$$$$$$$$$$$$$$$$$$@. .  .....",
"....   .  .........O...OOO   .@%$$$$$$$$$$$$$$$$$$$$$@..........",
"................ ..OOO.OO..  @$$$$$@@@$$$$$$$$%@@$$$$$@.-.......",
"................  ..OO ......@$$$$@@@@@$$$$$$@@@@@$$$$@--.......",
"................   .  .......@$$$@@@%$@$$$$$$@%$@@@%$$@--.......",
".........ooo.....  .........#%$$$@@@%$@$$$$$$@%$@@@%$$%;........",
"....ooo.ooo.................@$$$$@@@%$@$$$$$$@%$@@@%$$$@.... ...",
".....oo.oo..................@$$$$@@@%$@$$$$$$@%$@@@%$$$@....  ..",
"   .........................@$$$$@@@@@@$$$$$$@@@@@@%$$$@....   .",
"  ..........................@$$$$$@@@@$$$$$$$$%@@@$$$$$@.....  .",
"......................... ..@$$$$$%%%%$$$$$$$$*%%%$$$$$@........",
"..........    ...   .....  .@$$$$$$$$$$$$$$$$$$$$$$$$$$@........",
"...........    .   ......   @$$$$$$$$$$$$$$$$$$$$$$$$$$@........",
".............  .  ........  @$$$$$$$$$$$$$$$$$$$$$$$$$$@........",
"..   .......................@$$$$$$$$$$$$$$$$$$$$$$$$$$@..... ..",
".   ........................@$$$$$$$$$$$$$$$$$$$$$$$$$$@.....  .",
".  .........................@$$$$$$$$$$$$$$$$$$$$$$$$$$@......  ",
"....................... ....@$$$$$$$$$$$$$$$$$$$$$$$$$$@......  ",
"................    ..  ....@$$$$$$$$$$$$$$$$$$$$$$$$$$@........",
"..........++....++   .  ....@$$$$$$$$$$$$$$$$$$$$$$$$$$@........",
"...........+++.++..  .......@$$$$$$$$$$$$$$$$$$$$$$$$$$@...XXX..",
"...........+++.++...........@$$$$$$$$$$$$$$$$$$$$$$$$$$@..XXX...",
"..... .... .++..............@$$$$$$$$$$$$$$$$$$$$$$$$$$@X.XX....",
".....  ..  .................@$$$$$:$$$$$$$$$$$$$$$$$$$$@X.   ...",
".....   .  .................@$$$$:::>$$$$$$$$$$$$$$$$$$@.   ....",
"......  ....................@>$,>:<:1>$$$$$>$$$$$$$$$$$@.  .....",
"............................@:$>::2:::$$$$$:$$$$$$$$$$$@........",
".................. .........@::::2@2<::$$>:2:$$$$::::$:@........",
"..................   .......@2:::@.@32:::<2@2::::2@32::@........",
"..................   ..   ...@:<2@..#@2:23@.@2<::@.#@:2@........",
"...................  .   ....@<43#..#@2:23@.&35:<@.#@<3#........",
"......................  .....@23@.o.#@2:23@.+@6:2@ #@2@.........",
".o... oo.................. .o@23@oo...@2@#.++@322@...@....-.....",
".ooo.oo... .........O.....  oo@#oo ....@++.++@32@ .---..---.....",
"..oo.oo .  .OOO...OOO......  oo   ......++... &@....---.--..... ",
"......  .....OOO.OOO........  .  ....................--. .....  ",
"..............OO.OO.....................................   ..   ",
"...........   ...   ................ ....   .............   .  .",
"............   .   .................  ..   ...............  ....",
".............  .  ..................   .  ......................",
".....................................  .........................",
".......................... .....................................",
"..... .............   ...  ...............   ...  ..............",
"....  ..............   .   ................   .  .............. "
};
