/* XPM */
static char *e7078e9890fe4936bc219812f9876d4br12isCpqLYvi90QG[] = {
/* columns rows colors chars-per-pixel */
"64 64 151 2 ",
"   c #0C0C0C",
".  c #190D0D",
"X  c #131313",
"o  c #191313",
"O  c #1C1C1C",
"+  c #330404",
"@  c #3E0404",
"#  c #3C0C0C",
"$  c #271E1E",
"%  c #361515",
"&  c #391313",
"*  c #351B1B",
"=  c #3F1B1B",
"-  c #3B2F1C",
";  c #242424",
":  c #2D2B2B",
">  c #312424",
",  c #382626",
"<  c #342B24",
"1  c #3D2929",
"2  c #2F312C",
"3  c #32362A",
"4  c #353C2A",
"5  c #393F2D",
"6  c #343434",
"7  c #3A3030",
"8  c #3C3C3B",
"9  c #400000",
"0  c #4D0000",
"q  c #420C04",
"w  c #4D0E0E",
"e  c #520000",
"r  c #5D0101",
"t  c #540C04",
"y  c #5D0B0B",
"u  c #421306",
"i  c #551B09",
"p  c #491010",
"a  c #4D1B10",
"s  c #4C1919",
"d  c #531212",
"f  c #541C1C",
"g  c #640202",
"h  c #6B0000",
"j  c #610C04",
"k  c #610909",
"l  c #680909",
"z  c #760000",
"x  c #790000",
"c  c #44260D",
"v  c #4B230C",
"b  c #46290E",
"n  c #453110",
"m  c #463A13",
"M  c #4F2121",
"N  c #452D2D",
"B  c #532121",
"V  c #473535",
"C  c #423838",
"Z  c #3B4626",
"A  c #3E4C25",
"S  c #3A4229",
"D  c #3E4336",
"F  c #474116",
"G  c #484C19",
"H  c #49531C",
"J  c #4A5B1E",
"K  c #5E591C",
"L  c #424E2B",
"P  c #435424",
"I  c #465A22",
"U  c #485D21",
"Y  c #44522B",
"T  c #404732",
"R  c #444C34",
"E  c #44473E",
"W  c #44493B",
"Q  c #465035",
"!  c #4A6120",
"~  c #556627",
"^  c #556B2D",
"/  c #5C772D",
"(  c #626620",
")  c #687725",
"_  c #657D24",
"`  c #6A7C27",
"'  c #444444",
"]  c #4B4242",
"[  c #4A4D45",
"{  c #4D4D4D",
"}  c #504444",
"|  c #544F4F",
" . c #584E4E",
".. c #51554A",
"X. c #545454",
"o. c #5B5757",
"O. c #575855",
"+. c #595B55",
"@. c #5B5B5B",
"#. c #605E5E",
"$. c #6E5E5E",
"%. c #466F4A",
"&. c #61625F",
"*. c #646464",
"=. c #696464",
"-. c #6C6C6C",
";. c #746B6B",
":. c #737373",
">. c #7C7C7C",
",. c #830000",
"<. c #8E0000",
"1. c #8C0808",
"2. c #940101",
"3. c #990000",
"4. c #A20000",
"5. c #807373",
"6. c #8A7E7E",
"7. c #66852D",
"8. c #68892D",
"9. c #68892D",
"0. c #4C8140",
"q. c #4C8140",
"w. c #818181",
"e. c gray51",
"r. c #838383",
"t. c #848484",
"y. c gray52",
"u. c gray53",
"i. c #858585",
"p. c #8E8484",
"a. c #898989",
"s. c gray54",
"d. c #8B8B8B",
"f. c gray55",
"g. c gray56",
"h. c #8A8A8A",
"j. c #948D8D",
"k. c #909090",
"l. c gray57",
"z. c #929292",
"x. c #939393",
"c. c gray58",
"v. c #959595",
"b. c gray59",
"n. c #949494",
"m. c #989898",
"M. c gray60",
"N. c #9A9A9A",
"B. c #9B9B9B",
"V. c #9D9D9D",
"C. c #9D9D9D",
/* pixels */
"! ! ! ! ! ! ! ! ! ! ! ! ! ! ! ! ! ! ! ! ! ! ! ! ! ! ! ! ! ! ! ! ! ! ! ! ! ! ! ! ! ! ! ! ! ! ! ! ! ! ! ! ! ! ! ! ! ! ! ! ! ! ! ! ",
"! ! ! ! ! ! ! ! ! ! ! ! ! ! ! ! ! ! ! ! ! ! ! ! ! ! ! ! ! ! ! ! ! ! ! ! F u u u u H ! ! ! ! ! ! ! ! ! ! ! ! ! ! ! ! ! ! ! ! ! ! ",
"! ! ! ! ! ! ! ! ! ! ! ! ! ! ! ! ! ! ! ! ! ! ! ! ! ! ! A 3 3 3 3 3 3 I n j <.<.<.<.t G ! ! ! ! ! ! ! ! ! ! ! ! ! ! ! ! ! ! ! ! ! ",
"! ! ! ! ! ! ! ! ! ! ! ! ! ! ! ! ! ! ! ! ! ! ! ! ! ! A +.:.:.:.:.:.:.R a z 4.4.4.4.,.i G ! ! ! ! ! ! ! ! %.%.%.! ! %.%.! ! ! ! ! ",
"! ! ! ! ! ! ! ! ! ! ! ! ! ! ! ! ! ! ! 8.8.8.! ! ! ^ ..e.d.:.:.:.:.:.8 d x <.2.4.4.4.h v G ! ! ! ! ! ! ! ! %.%.! %.%.! ! ! ! ! ! ",
"! ! ! ! ! ! ! ! ! ! ! ! 0.! ! ! ! ! ! ! 8.8.8.! 8.5 >.k.-.8 8 8 8 8 8 f k k z 4.4.3.x e c ! ! ! ! ! ! ! ! ! ! ! %.%.! ! ! ! ! ! ",
"! ! ! ! ! ! 0.! ! ! 0.0.0.! ! ! ! ! ! ! ! 8.7.P / W :.@.O.>.>.>.>.>.>.O.8 N l 1.2.z h e c ! ! ! ! ! ! ! ! ! ! ! ! ! ! ! ! ! ! ! ",
"! ! ! ! ! ! 0.0.0.! 0.0.! ! ! ! ! ! ! ! ! U P 6 : -.{ @.:.>.>.>.>.>.>.>.>.*.6 7 k h h e c ! ! ! ! ! ! ! ! ! ! ! ! ! ! ! ! ! ! ! ",
"! ! ! ! ! ! ! 0.0.! ! ! ! ! ! ! ! ! ! ! ! P 8 -.6 -.f.@.X.>.>.>.>.>.>.>.>.>.:.-.7 k h e b ! ! ! ! ! ! ! ! ! ! ! ! ! ! ! ! ! ! ! ",
"! ! ! ! ! ! ! ! ! ! ! ! ! ! ! ! ! ! ! ! ! P 6 ' -.>.k.k.-.8 8 8 >.>.>.>.>.>.>.:.6 y h h t c ! ! ! ! ! ! ! ! ! ! ! ! ! ! ! ! ! ! ",
"! ! ! ! ! ! ! ! ! ! ! ! ! ! ! ! ! ! ! ! P W *.*.>.>.k.V.k.>.>.>.' ' ' *.>.>.>.>.*.N y h r u ! ! ! ! ! ! ! ! ! ! ! ! ! ! ! ! ! ! ",
"! ! ! ! ! ! ! ! ! ! ! ! ! ! ! ! ! ! ! ! A ' >.>.>.f.M.V.V.V.V.V.:.:.:.@.{ { O.>.>.8 y r 0 u ! ! ! ! ! ! ! ! ! ! ! ! ! ! ! ! ! ! ",
"! ! ! ! ! ! ! ! ! ! ! ! ! ! ! ! ! ! ! ! A ' >.>.>.b.V.V.V.V.V.V.V.V.V.:.@.@.@.@.@.6 w 0 9 q F ! ! ! ! ! ! ! ! ! ! ! ! ! ! ! ! ! ",
"! ! ! ! ! ! ! ! ! ! ! ! ! ! ! ! ! ! ! ! A ' >.>.>.b.V.V.V.V.V.V.V.V.V.V.V.V.u.: ' ' = @ 9 9 u ! ! ! ! ! ! ! ! ! ! ! ! ! ! ! ! ! ",
"! ! ! ! ! ! ! ! ! ! ! ! ! ! ! ! ! ! ! ! A ' >.>.>.b.V.V.V.V.V.V.V.V.V.V.V.V.u.8 k.V.{ & 9 9 u ! ! ! ! ! ! ! ! ! ! ! ! ! ! ! ! ! ",
"! ! ! ! ! ! ! ! ! ! ! ! ! ! ! ! ! ! ! ! P ' >.>.>.b.V.V.V.V.V.V.V.V.V.V.V.V.u.8 k.V.{ & 9 9 u ! ! ! ! ! ! ! ! ! ! ! ! ! ! ! ! ! ",
"! ! ! ! ! ! ! ! ! ! ! ! ! ! ! ! ! ! ! ! P ' >.>.>.b.V.V.V.V.V.V.V.V.V.V.:.: ' k.8 : P b 9 9 9 9 ! ! ! ! ! ! ! ! ! ! ! ! ! ! ! ! ",
"! ! ! ! ! ! ! ! ! ! ! ! ! ! ! ! ! ! ! ! A : ; : :.b.V.V.-.: : : : : : : { u.d.k.8 : P H n 9 9 9 ! ! ! ! ! ! ! ! ! ! ! ! ! ! ! ! ",
"! ! ! ! ! ! ! ! ! ! ! ! ! ! ! ! ! ! ! ! A ;   X 6 ' ' ' :           X.*.>.V.g.@.@.6 P ! m 9 9 9 ! ! ! ! ! ! ! ! ! ! ! ! ! ! ! ! ",
"! ! ! ! ! ! ! ! ! ! ! ! ! ! ! ! ! ! ! ! A 6 8               O O.O.O.f.V.V.f.*.@.>.8 P ! G c q n ! ! ! ! ! ! ! ! ! ! ! ! ! ! ! ! ",
"! ! ! ! ! ! ! ! ! ! ! ! ! ! ! ! ! ! ! ! A ' -.8 8 ' ' ' ' ' @.V.V.V.V.V.V.>.8 >.#.T P ! ! H n ! ! ! ! ! ! ! ! ! ! ! ! ! ! ! ! ! ",
"! ! ! ! ! ! ! ! ! ! ! ! ! ! ! ! ! ! ! _ P E :.>.>.b.V.V.V.V.V.V.V.V.V.V.b.:.[ :.6 I ! ! ! ! ! ! ! ! ! ! ! ! ! ! ! ! ! ! ! ! ! ! ",
"! ! ! ! ! ! ! ! ! ! ! ! ! ! ! ! ! ! ! _ _ ~ 8 >.>.b.V.V.V.V.V.V.V.V.V.V.:.' >.:.6 I ! ! ! ! ! ! ! ! ! ! ! ! ! ! ` ! ! ! ! ! ! ! ",
"! ! ! ! ! ! ! ! ! ! ! ! ! ! ! ! ! ! ! ! _ ~ 8 :.>.>.k.V.V.V.V.V.k.k.[ 6 X.>.*.3 ! ! ! ! ! ! ! ! ! ! ! ! ! ! ! ` ` ! ! ! ! ! ! ! ",
"! ! ! ! ! ! ! ! ! ! ! ! ! ! ! ! ! ! ! ! ! ! Y ' :.>.k.V.V.V.V.V.' ' *.-.:.-.D P U ! ! ! ! ! ! ! ! ! ` ` ` ! ` ` ` ! ! ! ! ! ! ! ",
"! ! ! ! ! ! ! ! ! 8.8.8.! ! ! ! ! ! ! ! ! ! U P 8 -.e.k.V.d.' ' -.-.>.O.8 D I ! ! ! ! ! ! ! ! ! ! ! ! ` ` ! ` ` ! ! ! ! ! ! ! ! ",
"! ! ! ! 8.8.8.! 8.8.8.! ! ! ! ! ! ! ! ! ! P S S @.X.{ O.@.X.: : { { { N * 3 S Z U ! ! ! ! ! ! ! ! ! ! ! ! ! ! ! ! ! ! ! ! ! ! ! ",
"! ! ! ! ! 8.8.! 8.8.! ! ! ! ! ! ! ! ! ! I Q @.@.>.O.1 * * * * * * * * % N @.@.O.L U ! ! ! ! ! ! ! ! ! ! ! ! ! ! ! ! ! ! ! ! ! ! ",
"! ! ! ! ! ! ! ! ! ! ! ! ! ! ! ! ! ! ! ! A { M.k.>.$.f 0 0 0 0 0 0 0 @ V -.V.V.b.O.Y I ! ! ! ! ! ! ! ! ! ! ! ! ! ! ! ! ! ! ! ! ! ",
"! ! ! ! ! ! ! ! ! ! ! ! ! ! ! ! ! ! ! ! A { b.>.>.s r h h h h g g g , :.V.V.V.V.V.O.Y U ! ! ! ! ! ! ! ! ! ! ! ! ! ! ! ! ! ! ! ! ",
"! ! ! ! ! ! ! ! ! ! ! ! ! ! ! ! ! ! ! ! A { b.>.:.M r h h h g p p p > -.M.V.V.V.V.M.{ A ! ! ! ! ! ! ! ! ! ! ! ! ! ! ! ! ! ! ! ! ",
"! ! ! ! ! ! ! ! ! ! ! ! ! ! ! ! ! ! ! ! A ' >.:.8 =.B 9 9 9 f j.j.j.' @.d.V.V.V.V.u.' A ! ! ! ! ! ! ! ! ! ! ! ! ! ! ! ! ! ! ! ! ",
"! ! ! ! ! ! ! ! ! ! ! ! ! ! ! ! ! ! ! ! A ' -.8 : -.;.5.6.6.p.V.V.V.:.X.@.e.e.e.e.[ @.[ Z ! ! ! ! ! ! ! ! ! ! ! ! ! ! ! ! ! ! ! ",
"! ! ! ! ! ! ! ! ! ! ! ! ! ! ! ! ! ! ! ! U L ' *.6 -.>.k.V.V.V.V.V.V.M.>.@.8 8 8 8 *.d.O.S ! ! ! ! ! ! ! ! ! ! ! ! ! ! ! ! ! ! ! ",
"! ! ! ! ! ! ! ! ! ! ! ! ! ! ! ! ! ! ! ! ! P 8 :.6 -.>.u.k.V.V.V.V.V.V.d.@.> % O 6 [ u.e.+.A ! ! ! ! ! ! ! ! ! ! ! ! ! ! ! ! ! ! ",
"! ! ! ! ! ! ! ! ! ! ! ! ! ! ! ! ! ! ! ! ! P 8 :.6 -.>.>.d.V.V.V.V.V.V.d.@.> + X : : >.V.:.3 ! ! ! ! ! ! ! ! ! ! ! ! ! ! ! ! ! ! ",
"! ! ! ! ! ! ! ! ! ! ! ! ! ! ! ! ! ! ! ! U L ' *.6 *.-.:.d.V.V.V.V.d.u.:.| * + . O ; -.u.*.3 U ! ! ! ! ! ! ! ! ! ! ! ! ! ! ! ! ! ",
"! ! ! ! ! ! ! ! ! ! ! ! ! ! ! ! ! ! ! ! A ' -.: 6 : 8 @.:.u.u.u.u.{ 8 6 * 9 9 @ o O 8 ' ' 8 4 ! ! ! ! ! ! ! ! ! ! ! ! ! ! ! ! ! ",
"! ! ! ! ! ! ! ! ! ! ! ! ! ! ! ! ! ! ! ! A ' -.: O : *.{ : : : : : -.>.{ * 9 9 @ : : >.V.V.u.4 ! ! ! ! ! ! ! ! ! ! ! ! ! ! ! ! ! ",
"! ! ! ! ! ! ! ! ! ! 0.0.! ! ! ! 0.0.! S @.>.: O 8 6 *.>.>.>.>.>.>.b.V.@.* 9 9 @ : -.k.V.V.u.3 ! ! ! ! ! ! ! ! ! ! ! ! ! ! ! ! ! ",
"! ! ! ! ! ! ! ! ! ! ! 0.0.0.! 0.0.! 4 *.k.b.:.: O : *.>.>.e.b.b.b.V.V.@.* 9 9 @ : -.k.V.V.u.3 ! ! ! ! ! ! ! ! ! ! ! ! %.%.%.! ! ",
"! ! ! ! ! ! ! ! ! ! ! 0.0.0.! 0.0.4 :.b.k.e.>.*.: : 8 *.>.e.V.V.V.O.' 6 * 9 9 @ : -.k.V.V.u.< u ! ! ! ! ! %.%.%.! ! %.%.%.! ! ! ",
"! ! ! ! ! ! ! ! ! ! ! ! 0.0.! ! ! 3 u.k.u.>.>.:.6 : { X.{ { @.@.@.-.:.:. .& 9 @ : -.k.V.V.u.> 9 ! ! ! ! ! ! %.%.%.! %.%.! ! ! ! ",
"! ! ! ! ! ! ! ! ! ! ! ! ! ! ! ! ! 3 >.u.>.>.:.+.S 2 *.*.{ { @.@.@.k.V.V.e.} # @ * | e.M.V.u.> 9 m J ! ! ! ! ! %.%.! ! ! ! ! ! ! ",
"! ! ! ! ! ! ! ! ! ! ! ! ! ! ! ! ! 3 -.>.>.:.&.4 U 3 *.>.:.:.u.u.V.V.V.V.V.>.> 9 9 > *.f.b.e.> 9 9 G ! ! ! ! ! ! ! ! ! ! ! ! ! ! ",
"! ! ! ! ! ! ! ! ! ! ! ! ! ! ! ! ! 4 &.-.-.@.4 U P D -.:.O.: : 6 u.M.V.V.V.e.C @ 9 * o.-.-.#.* 9 9 m J ! ! ! ! ! ! ! ! ! ! ! ! ! ",
"! ! ! ! ! ! ! ! ! ! ! ! ! ! ! ! ! ! 4 3 3 S ! I 3 -.>.{ 6 6 ; 8 : >.M.V.V.V.u.: @ 9 * : : > 9 9 9 9 G ! ! ! ! ! ! ! ! ! ! ! ! ! ",
"! ! ! ! ! ! ! ! ! ! ! ! ! ! ! ! ! ! ! I I U ! I 3 -.>.{ : ; 6 O 8 8 d.V.V.V.u.: @ 9 @ @ @ @ 9 9 9 9 G ! ! ! ! ! ! ! ! ! ! ! ! ! ",
"! ! ! ! ! ! ! ! ! ! ! ! ! ! ! ! ! ! ! ! ! ! ! I 3 8 8 @.[ X o X O @.{ ' ' ' 8 : @ 9 9 9 9 9 9 9 9 9 q F ! ! ! ! ! ! ! ! ! ! ! ! ",
"! ! ! ! ! ! ! ! ! ! ! ! ! ! ! ! ! ! ! ! ! ! ! ! 3 @.*.e.u.*.$ + + C @.*.*.*.*.#., @ 9 9 9 9 9 9 9 9 9 u m ! ! ! ! ! ! ! ! ! ! ! ",
"! ! ! ! ! ! ! ! ! ! ! ! ! ! ! ! ! ! ! ! ! ! ! S +.u.k.M.V.u.> 9 9 > -.d.k.k.k.u.6 @ 9 9 9 9 9 9 9 9 9 9 q m ! ! ! ! ! ! ! ! ! ! ",
"! ! ! ! ! ! ! ! ! ! ! ! ! ! ! ! ! ! ! ! ! ! U 6 :.b.V.V.V.u.> 9 9 % X.>.b.V.V.k.8 @ 9 9 9 9 9 9 9 9 9 9 9 u F ! ! ! ! ! ! ! ! ! ",
"! 8.! ! ! ! 8.8.! ! ! ! ! ! ! ! ! ! ! ! ! ! P 6 :.b.V.V.b.:.* 9 9 9 > @.d.V.V.b.{ & @ 9 9 9 9 9 9 9 9 9 9 9 q G J ! ` ! ! ! ! ! ",
"! 8.8.8.! 8.8.! ! ! ! ! ! ! ! ! ! ! ! ! _ ! P 6 :.b.V.V.:.> 9 9 9 9 > @.d.V.V.V.V.' # 9 9 9 9 9 9 9 9 9 9 9 9 q K ) ` ! ! ! ! ! ",
"! ! 8.8.! 8.8.! ! ! ! ! _ _ _ ! ! ! _ _ _ ! P 6 :.b.V.V.:.> 9 9 9 9 > @.d.V.V.V.V.' # 9 9 9 9 9 9 9 9 9 9 9 9 9 q ( ! ! ! ! ! ! ",
"! ! ! ! ! ! ! ! ! ! ! ! ! _ _ _ ! _ _ _ ! ! P 6 :.b.V.V.:.> 9 9 9 9 > @.d.V.V.V.V.' # 9 9 9 9 9 9 9 9 9 c ` ` ! ! ! ! ! ! ! ! ! ",
"! ! ! ! ! ! ! ! ! ! ! ! ! ! _ _ ! _ _ ! ! ! P 6 :.b.V.V.:.> 9 9 9 9 @ 1 @.d.V.V.V.d.] # 9 9 9 9 9 9 m G H ! ! ! ! ! ! ! ! ! ! ! ",
"! ! ! ! ! ! ! ! ! ! ! ! ! ! ! ! ! ! ! ! ! ! P 6 :.b.V.V.:.3 m m m q 9 * { u.V.V.V.V.{ & 9 9 q m m m J ! ! ! ! ! ! ! ! ! ! ! ! ! ",
"! ! ! ! ! ! ! ! ! ! ! ! ! ! ! ! ! ! ! ! ! I S 6 X.*.f.V.:.3 ! ! ! m n < { :.*.*.*.k.{ - n n m ! ! ! ! ! ! ! ! ! ! ! ! ! ! ! ! ! ",
"! ! ! ! ! ! ! ! ! ! ! ! ! ! ! ! ! ! ! ! I R { { @.@.d.V.:.3 ! ! ! ! ! S { -.{ @.@.k.{ A ! ! ! ! ! ! ! ! ! ! ! ! ! ! ! ! ! ! ! ! ",
"! ! ! ! ! ! ! ! ! ! ! ! ! ! ! ! ! ! ! ! A ' >.>.b.b.b.b.-.3 ! ! ! ! ! S { >.e.b.b.b.{ A ! ! ! ! ! ! ! ! ! ! ! ! ! ! ! ! ! ! ! ! ",
"! ! ! ! ! ! ! ! ! ! ! ! ! ! ! ! ! ! ! ! A ' >.>.>.>.>.>.@.3 ! ! ! ! ! S { >.>.>.>.>.' A ! ! ! ! ! ! ! ! ! ! ! ! ! ! ! ! ! ! ! ! ",
"! ! ! ! ! ! ! ! ! ! ! ! ! ! ! ! ! ! ! ! P 4 3 3 3 4 4 3 3 4 ! ! ! ! ! Z 3 3 3 3 3 3 4 P ! ! ! ! ! ! ! ! ! ! ! ! ! ! ! ! ! ! ! ! ",
"! ! ! ! ! ! ! ! ! ! ! ! ! ! ! ! ! ! ! ! ! ! ! ! ! ! ! ! ! ! ! ! ! ! ! ! ! ! ! ! ! ! ! ! ! ! ! ! ! ! ! ! ! ! ! ! ! ! ! ! ! ! ! ! "
};
