/* XPM */
static char *d3de056f2a164789c73f6011e32fe837IrKVVYN2QZFc1B29[] = {
/* columns rows colors chars-per-pixel */
"64 64 150 2 ",
"   c #0C0C0C",
".  c #190F0F",
"X  c #151515",
"o  c #191313",
"O  c #1B1A1A",
"+  c #340404",
"@  c #3D0505",
"#  c #340B0B",
"$  c #3C0A0A",
"%  c #281B1B",
"&  c #351515",
"*  c #391212",
"=  c #351B1B",
"-  c #3B2F1C",
";  c #242424",
":  c #2D2C2C",
">  c #322323",
",  c #3A2525",
"<  c #332B25",
"1  c #3E2D2D",
"2  c #383424",
"3  c #33362A",
"4  c #353B2A",
"5  c #343434",
"6  c #3A3030",
"7  c #3C3C3C",
"8  c #400000",
"9  c #4C0000",
"0  c #410B04",
"q  c #490B0B",
"w  c #530000",
"e  c #5D0303",
"r  c #530A03",
"t  c #520909",
"y  c #590E0E",
"u  c #421306",
"i  c #421708",
"p  c #431D0A",
"a  c #4F1E0A",
"s  c #51140C",
"d  c #4A1212",
"f  c #531111",
"g  c #551919",
"h  c #630101",
"j  c #6B0000",
"k  c #600909",
"l  c #680909",
"z  c #760000",
"x  c #7D0000",
"c  c #700803",
"v  c #44260D",
"b  c #4B230C",
"n  c #442A0E",
"m  c #4F320E",
"M  c #453111",
"N  c #463A13",
"B  c #483E14",
"V  c #402020",
"C  c #4B2828",
"Z  c #5C2B2B",
"A  c #423A3A",
"S  c #4C3D3D",
"D  c #3B4627",
"F  c #3E4B25",
"G  c #394228",
"H  c #3D4A28",
"J  c #3E4237",
"K  c #474216",
"L  c #474818",
"P  c #484C19",
"I  c #544416",
"U  c #49531C",
"Y  c #4A5B1E",
"T  c #585017",
"R  c #5E641D",
"E  c #404E25",
"W  c #414D2B",
"Q  c #435423",
"!  c #465A22",
"~  c #485D21",
"^  c #445229",
"/  c #404732",
"(  c #424B32",
")  c #464C39",
"_  c #405F38",
"`  c #4A6120",
"'  c #5A6D26",
"]  c #606E24",
"[  c #657D24",
"{  c #6A7C27",
"}  c #444444",
"|  c #494141",
" . c #4A4D45",
".. c #4C4C4C",
"X. c #544F4F",
"o. c #4D5244",
"O. c #4F524B",
"+. c #50524B",
"@. c #54594C",
"#. c #545454",
"$. c #5B5757",
"%. c #5B5B5B",
"&. c #674E4E",
"*. c #635F5F",
"=. c #466F4A",
"-. c #646464",
";. c #6C6C6C",
":. c #716464",
">. c #726868",
",. c #727272",
"<. c #7C7C7C",
"1. c #850000",
"2. c #8E0101",
"3. c #950000",
"4. c #A20000",
"5. c #857878",
"6. c #8A7E7E",
"7. c #68892D",
"8. c #68892D",
"9. c #4C8140",
"0. c #4C8140",
"q. c #818181",
"w. c #838383",
"e. c gray51",
"r. c #868686",
"t. c gray53",
"y. c #848484",
"u. c #898989",
"i. c #8B8B8B",
"p. c #8D8D8D",
"a. c #8E8E8E",
"s. c gray56",
"d. c #8B8B8B",
"f. c #908787",
"g. c #948D8D",
"h. c #909090",
"j. c gray57",
"k. c #929292",
"l. c gray58",
"z. c #959595",
"x. c gray59",
"c. c #979797",
"v. c #949494",
"b. c #989898",
"n. c gray60",
"m. c #9A9A9A",
"M. c #9B9B9B",
"N. c gray61",
"B. c #9D9D9D",
"V. c #9D9D9D",
/* pixels */
"` ` ` ` ` ` ` ` ` ` ` ` ` ` ` ` ` ` ` ` ` ` ` ` ` ` ` ` ` ` ` ` ` ` ` ` ` ` ` ` ` ` ` ` ` ` ` ` ` ` ` ` ` ` ` ` ` ` ` ` ` ` ` ` ",
"` ` ` ` ` ` ` ` ` ` ` ` ` ` ` ` ` ` ` ` ` ` ` ` ` u u u u M ` ` ` ` ` ` ` ` ` ` ` ` ` ` ` ` ` ` ` ` ` ` ` ` ` ` ` ` ` ` ` ` ` ` ",
"` ` ` ` ` ` ` ` ` ` ` ` ` ` ` ` ` ` ` ` ` ` ` U u 2.2.2.2.c n ! 3 3 3 3 3 3 4 ` ` ` ` ` ` ` ` ` ` ` ` ` ` ` ` ` ` ` ` ` ` ` ` ` ",
"` ` ` ` ` ` ` ` ` ` ` ` ` ` ` ` ` ` ` ` ` ` L a x 4.4.4.4.1.s ) ,.,.,.,.,.,.-.D ~ ` ` ` ` ` ` ` ` ` ` ` =.=.=.` ` =.=.` ` ` ` ` ",
"` ` ` ` ` ` ` ` ` ` ` ` ` ` ` ` ` ` ` 7.7.] b h 4.4.4.3.2.x y 7 ,.,.,.,.,.q.k.#.W ` [ ` ` ~ ` ` ` ` ` ` ` =.=.` =.=.` ` ` ` ` ` ",
"` ` ` ` ` ` ` ` ` ` ` ` 9.` ` ` ` ` ` ` 7.I w z 3.4.4.z h k g 7 7 7 7 7 7 %.i.t.7 [ [ ` Y Y ` ` ` ` ` ` ` ` ` ` =.=.` ` ` ` ` ` ",
"` ` ` ` ` ` 9.` ` ` 9.9.9.` ` ` ` ` ` ` ` I w j j 3.2.l C 7 #.<.<.<.<.<.<.-...<.} ' Q ~ ` ` ` ` ` ` ` ` ` ` ` ` ` ` ` ` ` ` ` ` ",
"` ` ` ` ` ` 9.9.9.` 9.9.` ` ` ` ` ` ` ` ` M w j j k 1 5 -.<.<.<.<.<.<.<.<.<.;.} <.: 5 W ~ ` ` ` ` ` ` ` ` ` ` ` ` ` ` ` ` ` ` ` ",
"` ` ` ` ` ` ` 9.9.` ` ` ` ` ` ` ` ` ` ` ` M w j j 6 -.<.<.<.<.<.<.<.<.<.<.-. .s.<.: -. .F ` ` ` ` ` ` ` ` ` ` ` ` ` ` ` ` ` ` ` ",
"` ` ` ` ` ` ` ` ` ` ` ` ` ` ` ` ` ` ` ` M r j j j 5 ;.<.<.<.<.<.<.<. .7 7 %.i.c.<.;.} 5 H ` ` ` ` ` ` ` ` ` ` ` ` ` ` ` ` ` ` ` ",
"` ` ` ` ` ` ` ` ` ` ` ` ` ` ` ` ` ` ` ` v w j k V -.<.<.<.<.;.} } } ,.<.<.i.B.c.<.<.;.-.o.F ` ` ` ` ` ` ` ` ` ` ` ` ` ` ` ` ` ` ",
"` ` ` ` ` ` ` ` ` ` ` ` ` ` ` ` ` ` ` ` v 9 e k : <.<.#.....#.,.,.,.c.B.B.B.B.m.k.<.<.<.#.G ` ` ` ` ` ` ` ` ` ` ` ` ` ` ` ` ` ` ",
"` ` ` ` ` ` ` ` ` ` ` ` ` ` ` ` ` ` ` K i 8 9 t : %.%.%.%.%.;.B.B.B.B.B.B.B.B.B.B.<.<.<.#.G ` ` ` ` ` ` ` ` ` ` ` ` ` ` ` ` ` ` ",
"` ` ` ` ` ` ` ` ` ` ` ` ` ` ` ` ` ` ` u 8 8 @ * } } 5 t.B.B.B.B.B.B.B.B.B.B.B.B.B.<.<.<.#.G ` ` ` ` ` ` ` ` ` ` ` ` ` ` ` ` ` ` ",
"` ` ` ` ` ` ` ` ` ` ` ` ` ` ` ` ` ` ` u 8 8 * } B.k.} t.B.B.B.B.B.B.B.B.B.B.B.B.B.<.<.<.#.G ` ` ` ` ` ` ` ` ` ` ` ` ` ` ` ` ` ` ",
"` ` ` ` ` ` ` ` ` ` ` ` ` ` ` ` ` ` ` u 8 8 * } B.k.} t.B.B.B.B.B.B.B.B.B.B.B.B.B.<.<.<.#.G ` ` ` ` ` ` ` ` ` ` ` ` ` ` ` ` ` ` ",
"` ` ` ` ` ` ` ` ` ` ` ` ` ` ` ` ` ` 8 8 8 8 v Q : 7 t.} : %.B.B.B.B.B.B.B.B.B.B.B.<.<.<.#.G ` ` ` ` ` ` ` ` ` ` ` ` ` ` ` ` ` ` ",
"` ` ` ` ` ` ` ` ` ` ` ` ` ` ` ` ` ` 8 8 8 v U Q : 7 t.i.t.-.: : : : : : : %.B.B.B.<.5 ; : G ` ` ` ` ` ` ` ` ` ` ` ` ` ` ` ` ` ` ",
"` ` ` ` ` ` ` ` ` ` ` ` ` ` ` ` ` ` 8 8 8 M ` Q : %.%.k.B.t.-.#.          ; } } } 7 X   O G ` ` ` ` ` ` ` ` ` ` ` ` ` ` ` ` ` ` ",
"` ` ` ` ` ` ` ` ` ` ` ` ` ` ` ` ` ` M 0 p L ` Q : <.%.-.t.B.B.s.#.#.#.;               : 7 G ` ` ` ` ` ` ` ` ` ` ` ` ` ` ` ` ` ` ",
"` ` ` ` ` ` ` ` ` ` ` ` ` ` ` ` ` ` ` M L ` ` ! W *.<.7 ,.B.B.B.B.B.B.-.} } } } } 7 7 -.#.G ` ` ` ` ` ` ` ` ` ` ` ` ` ` ` ` ` ` ",
"` ` ` ` ` ` ` ` ` ` ` ` ` ` ` ` ` ` ` [ ` ` ` [ [ 5 ;. .;.s.B.B.B.B.B.B.B.B.B.B.B.<.<.,.O.D ` ` ` ` ` ` ` ` ` ` ` ` ` ` ` ` ` ` ",
"` ` ` ` ` ` ` ` ` ` ` ` ` ` ` ` ` ` ` [ [ [ ` [ [ 5 ;.<...%.B.B.B.B.B.B.B.B.B.B.B.<.<...D ` ` ` ` ` ` ` ` ` ` ` { ` ` ` ` ` ` ` ",
"` ` ` ` ` ` ` ` ` ` ` ` ` ` ` ` ` ` ` ` [ [ ` ` ` ! 4 -.<.-.5  .k.k.m.B.B.B.B.c.<.<.<. .F ` ` ` ` ` ` ` ` ` ` { { ` ` ` ` ` ` ` ",
"` ` ` ` ` ` ` ` ` ` ` ` ` ` ` ` ` ` ` ` ` ` ` ` ` ~ ! J -.<.;.-.} } i.B.B.B.B.c.<.<. .W ! ` ` ` ` ` { { { ` { { { ` ` ` ` ` ` ` ",
"` ` ` ` ` ` ` ` ` 7.7.7.` ` ` ` ` ` ` ` ` ` ` ` ` ` ` ! / 7 #.<.;.;...} <.B.m.q.<.7 ^ ~ ` ` ` ` ` ` ` { { ` { { ` ` ` ` ` ` ` ` ",
"` ` ` ` 7.7.7.` 7.7.7.` ` ` ` ` ` ` ` ` ` ` ` ` ` ~ D G 3 > , ......5 :  .%.#.....%./ G Q ` ` ` ` ` ` ` ` ` ` ` ` ` ` ` ` ` ` ` ",
"` ` ` ` ` 7.7.` 7.7.` ` ` ` ` ` ` ` ` ` ` ` ` ` ` W #.%.%.S & = = = = = = = = ,  .<.-.%.o.Q ` ` ` ` ` ` ` ` ` ` ` ` ` ` ` ` ` ` ",
"` ` ` ` ` ` ` ` ` ` ` ` ` ` ` ` ` ` ` ` ` ` ` ~ Q #.s.B.B.<.S $ 9 9 9 9 9 9 9 f &.<.s.m.-.G ` ` ` ` ` ` ` ` ` ` ` ` ` ` ` ` ` ` ",
"` ` ` ` ` ` ` ` ` ` ` ` ` ` ` ` ` ` ` ` ` ` ~ ^ } B.B.B.B.B.<., h h h j j j j h 8 <.<.k.-.G ` ` ` ` ` ` ` ` ` ` ` ` ` ` ` ` ` ` ",
"` ` ` ` ` ` ` ` ` ` ` ` ` ` ` ` ` ` ` ` ` ` F } m.B.B.B.B.B.<.< d d d e j j j h q <.<.s.-.G ` ` ` ` ` ` ` ` ` ` ` ` ` ` ` ` ` ` ",
"` ` ` ` ` ` ` ` ` ` ` ` ` ` ` ` ` ` ` ` ` ` F 7 <.B.B.B.B.k.-.} g.g.g.Z 8 8 8 d :.5 ;.<.#.G ` ` ` ` ` ` ` ` ` ` ` ` ` ` ` ` ` ` ",
"` ` ` ` ` ` ` ` ` ` ` ` ` ` ` ` ` ` ` ` ` F  .-.7 q.q.q.q.-. .<.B.B.B.f.6.6.5.>.<.: 7 -.#.G ` ` ` ` ` ` ` ` ` ` ` ` ` ` ` ` ` ` ",
"` ` ` ` ` ` ` ` ` ` ` ` ` ` ` ` ` ` ` ` ` D #.s.;.7 7 7 7 #.<.c.B.B.B.B.B.B.c.<.<.: -.#./ ! ` ` ` ` ` ` ` ` ` ` ` ` ` ` ` ` ` ` ",
"` ` ` ` ` ` ` ` ` ` ` ` ` ` ` ` ` ` ` ` E @.q.s...5 ; & > ..t.B.B.B.B.B.B.c.t.<.<.: ;...D ` ` ` ` ` ` ` ` ` ` ` ` ` ` ` ` ` ` ` ",
"` ` ` ` ` ` ` ` ` ` ` ` ` ` ` ` ` ` ` ` G -.B.t.: : X + = ..t.B.B.B.B.B.B.k.<.<.<.: ;...D Y ` ` ` ` ` ` ` ` ` ` ` ` ` ` ` ` ` ` ",
"` ` ` ` ` ` ` ` ` ` ` ` ` ` ` ` ` ` ` ! 4 %.t.<.: O . + & | <.t.i.m.B.B.B.k.<.;.;.5 -.#.( ` ` ` ` ` ` ` ` ` ` ` ` ` ` ` ` ` ` ` ",
"` ` ` ` ` ` ` ` ` ` ` ` ` ` ` ` ` ` ` 3 7 } } 7 ; o + 8 8 * 5 7 } <.t.t.t.<.-.7 : 5 3 %.#.G ` ` ` ` ` ` ` ` ` ` ` ` ` ` ` ` ` ` ",
"` ` ` ` ` ` ` ` ` ` ` ` ` ` ` ` ` ` ` 4 ,.B.B.t.: : $ 8 8 * } <.<.5 : : : : 7 ;.5 O : %.#.G ` ` ` ` ` ` ` ` ` ` ` ` ` ` ` ` ` ` ",
"` ` ` ` ` ` ` ` ` ` 9.9.` ` ` ` 0.0.` 4 ,.B.B.c.<.: $ 8 8 * ..B.m.<.<.<.<.<.<.;.5 7 ; ; -.,.3 ` ` ` ` ` ` ` ` ` ` ` ` ` ` ` ` ` ",
"` ` ` ` ` ` ` ` ` ` ` 9.9.9.` 9.9.~ ~ 4 ,.B.B.c.<.: $ 8 8 * ..B.B.c.c.c.t.<.<.;.5 O ; -.k.c.<.3 ` ` ` ` ` ` ` ` ` ` ` =.=.=.` ` ",
"` ` ` ` ` ` ` ` ` ` ` 9.9.9.` 9.9.~ u < ,.B.B.c.<.: $ 8 8 * 5 } ..c.B.B.i.<.;.7 : ; %.<.q.s.m.t.4 ` ` ` ` =.=.=.` ` =.=.=.` ` ` ",
"` ` ` ` ` ` ` ` ` ` ` ` 9.9.` ` ` ~ 8 < ,.B.B.c.<.: $ 8 * S ,.,.;.%.%.%.#...#.#.5 : ;.<.<.q.s.B.3 ` ` ` ` ` =.=.=.` =.=.` ` ` ` ",
"` ` ` ` ` ` ` ` ` ` ` ` ` ` ` ` Y B 8 < ,.B.m.t.%.= @ $ S <.B.B.c.-.%.%.#...#.;.5 G #.;.<.<.q.k.3 ` ` ` ` ` ` =.=.` ` ` ` ` ` ` ",
"` ` ` ` ` ` ` ` ` ` ` ` ` ` ` ` P 0 8 < ;.c.s.;.: 8 8 < ,.B.B.B.B.B.i.t.<.,.<.;.5 ` 4 #.<.<.<.<.3 ` ` ` ` ` ` ` ` ` ` ` ` ` ` ` ",
"` ` ` ` ` ` ` ` ` ` ` ` ` ` ` Y B 0 8 = X.;.;.*.< 8 @ A <.B.B.B.m.i.} : :  .;.,.} ! ~ F +.;.;.;.4 ` ` ` ` ` ` ` ` ` ` ` ` ` ` ` ",
"` ` ` ` ` ` ` ` ` ` ` ` ` ` ` P 8 8 8 8 = : : > 8 @ > t.B.B.B.m.i.7 5 ; : 5 7 <.<.: Q ` F 3 3 3 ` ` ` ` ` ` ` ` ` ` ` ` ` ` ` ` ",
"` ` ` ` ` ` ` ` ` ` ` ` ` ` ` P 8 8 8 8 @ @ @ @ 8 @ < t.B.B.B.i.7 7 ; 5 : ; 7 <.<.: Q Y ~ ! ! ! ` ` ` ` ` ` ` ` ` ` ` ` ` ` ` ` ",
"` ` ` ` ` ` ` ` ` ` ` ` ` ` K 0 8 8 8 8 8 8 8 8 8 @ < 7 } } } ..-.; X X X 5 -.7 7 : Q ` ` ` ` ` ` ` ` ` ` ` ` ` ` ` ` ` ` ` ` ` ",
"` ` ` ` ` ` ` ` ` ` ` ` ` N u 8 8 8 8 8 8 8 8 8 8 , $.-.-.-.-.%.A # + % #.<.i.-.-.: Q ` ` ` ` ` ` ` ` ` ` ` ` ` ` ` ` ` ` ` ` ` ",
"` ` ` ` ` ` ` ` ` ` ` ` N 0 8 8 8 8 8 8 8 8 8 8 8 5 <.k.k.k.i.;.: @ 8 > ,.B.m.k.k.%./ Q ` ` ` ` ` ` ` ` ` ` ` ` ` ` ` ` ` ` ` ` ",
"` ` ` ` ` ` ` ` ` ` ` K u 8 8 8 8 8 8 8 8 8 8 8 8 7 t.B.B.m.q.#.= @ 8 = ,.B.B.B.B.<.7 F 9.9.9.` ` ` ` ` ` ` ` ` ` ` ` ` ` ` ` ` ",
"` 7.` ` ` ` 7.7.` Y P 0 8 8 8 8 8 8 8 8 8 8 8 @ $ ..i.B.B.k.-.< 8 8 8 = *.k.B.B.B.<.7 _ 9.9.` ` ` ` ` ` ` ` ` ` ` ` { ` ` ` ` ` ",
"` 7.7.7.` 7.7.` Y L 0 8 8 8 8 8 8 8 8 8 8 8 8 $ : B.B.B.B.k.-.< 8 8 8 8 = %.B.B.B.<.7 _ 9.` ` ` ` ` ` { { { ` ` { { { ` ` ` ` ` ",
"` ` 7.7.` 7.7.` P 0 8 8 8 8 8 8 8 8 8 8 8 8 8 $ : B.B.B.B.h.-.< 8 8 8 8 = %.B.B.B.<.7 F ` ` ` ` ` ` ` ` { { { ` { { ` ` ` ` ` ` ",
"` ` ` ` ` ` ` ` ` ` ` ` ` m 8 8 8 8 8 8 8 8 8 $ : B.B.B.B.h.-.< 8 8 8 8 = %.B.B.B.<.7 F ` ` ` ` ` ` ` ` ` { { ` ` ` ` ` ` ` ` ` ",
"` ` ` ` ` ` ` ` ` ` ` ` ` U R T 8 8 8 8 8 8 $ A t.B.B.B.s.-.1 @ 8 8 8 8 = %.B.B.B.<.7 F ` ` ` ` ` ` ` ` ` ` ` ` ` ` ` ` ` ` ` ` ",
"` ` ` ` ` ` ` ` ` ` ` ` ` ` ` Y N B B 0 8 8 * } B.B.B.B.i.%.> 8 0 M N N 2 %.B.B.B.<.7 Q ` ` ` ` ` ` ` ` ` ` ` ` ` ` ` ` ` ` ` ` ",
"` ` ` ` ` ` ` ` ` ` ` ` ` ` ` ` ` ` ` N M M - } B.-.-.-.,.%.< M M Y ` ` G %.B.k.;.#.5 4 Q ` ` ` ` ` ` ` ` ` ` ` ` ` ` ` ` ` ` ` ",
"` ` ` ` ` ` ` ` ` ` ` ` ` ` ` ` ` ` ` ` ` ` F } B.%.%...;.%.4 ` ` ` ` ` G %.B.k.-.%.....) Q ` ` ` ` ` ` ` ` ` ` ` ` ` ` ` ` ` ` ",
"` ` ` ` ` ` ` ` ` ` ` ` ` ` ` ` ` ` ` ` ` ` F } c.c.c.q.<.%.4 ` ` ` ` ` G #.c.c.c.c.q.<.#.G ` ` ` ` ` ` ` ` ` ` ` ` ` ` ` ` ` ` ",
"` ` ` ` ` ` ` ` ` ` ` ` ` ` ` ` ` ` ` ` ` ` F 7 <.<.<.<.<.%.4 ` ` ` ` ` G ..<.<.<.<.<.<.#.G ` ` ` ` ` ` ` ` ` ` ` ` ` ` ` ` ` ` ",
"` ` ` ` ` ` ` ` ` ` ` ` ` ` ` ` ` ` ` ` ` ` Q 3 3 4 4 3 3 3 G ` ` ` ` ` F 3 3 3 3 3 4 4 4 F ` ` ` ` ` ` ` ` ` ` ` ` ` ` ` ` ` ` ",
"` ` ` ` ` ` ` ` ` ` ` ` ` ` ` ` ` ` ` ` ` ` ` ` ` ` ` ` ` ` ` ` ` ` ` ` ` ` ` ` ` ` ` ` ` ` ` ` ` ` ` ` ` ` ` ` ` ` ` ` ` ` ` ` "
};
